<svg width="250" height="250" viewBox="0 0 250 250" fill="none" xmlns="http://www.w3.org/2000/svg">
<path d="M145.833 108.333C145.833 102.808 143.637 97.5105 139.73 93.6035C135.823 89.6965 130.525 87.5 125 87.5C119.475 87.5 114.177 89.6965 110.27 93.6035C106.363 97.5105 104.167 102.808 104.167 108.333C104.167 123.53 100.904 133.604 97.408 140.015C97.0902 140.597 96.7654 141.146 96.4477 141.667H153.552C153.234 141.146 152.91 140.597 152.592 140.015C149.096 133.604 145.833 123.53 145.833 108.333ZM154.167 108.333C154.167 122.303 157.155 130.979 159.908 136.027C161.29 138.561 162.635 140.224 163.57 141.211C164.039 141.706 164.41 142.031 164.632 142.216C164.743 142.308 164.816 142.367 164.848 142.391C164.843 142.388 164.837 142.383 164.831 142.379L164.815 142.371C166.34 143.39 167.019 145.286 166.488 147.042C165.955 148.799 164.336 150 162.5 150H87.4999C85.6642 150 84.0447 148.799 83.5123 147.042C82.9808 145.286 83.6602 143.39 85.1847 142.371L85.1684 142.379C85.1626 142.383 85.1564 142.388 85.1521 142.391C85.1842 142.367 85.2571 142.308 85.3678 142.216C85.5895 142.031 85.9611 141.706 86.4298 141.211C87.3648 140.224 88.7097 138.561 90.0919 136.027C92.8453 130.979 95.8333 122.303 95.8333 108.333C95.8333 100.598 98.9043 93.1773 104.374 87.7075C109.844 82.2377 117.264 79.1666 125 79.1666C132.735 79.1666 140.156 82.2377 145.626 87.7075C151.096 93.1773 154.167 100.598 154.167 108.333Z" fill="#09162E"/>
<path d="M128.603 160.409C129.758 158.418 132.309 157.74 134.3 158.895C136.29 160.05 136.968 162.601 135.813 164.592C134.715 166.485 133.137 168.056 131.24 169.149C129.343 170.241 127.191 170.817 125.002 170.817C122.812 170.817 120.658 170.242 118.76 169.149C116.863 168.056 115.285 166.485 114.187 164.592C113.032 162.601 113.71 160.05 115.7 158.895C117.691 157.74 120.242 158.418 121.397 160.409C121.763 161.04 122.287 161.566 122.919 161.93C123.551 162.295 124.272 162.484 125.002 162.484C125.731 162.483 126.449 162.294 127.081 161.93C127.714 161.566 128.237 161.04 128.603 160.409Z" fill="#09162E"/>
</svg>
