<svg width="60" height="60" viewBox="0 0 60 60" fill="none" xmlns="http://www.w3.org/2000/svg">
<rect width="60" height="60" rx="30" fill="#09162E"/>
<path d="M30.6934 44.7901C30.2735 45.07 29.7265 45.07 29.3066 44.7901L30 43.75L30.6934 44.7901ZM40 27.5C40 24.8478 38.9469 22.3038 37.0715 20.4285C35.1962 18.5531 32.6522 17.5 30 17.5C27.3478 17.5 24.8038 18.5531 22.9285 20.4285C21.0531 22.3038 20 24.8478 20 27.5C20 31.3725 22.5192 35.1306 25.282 38.0469C26.6378 39.478 27.9985 40.6494 29.021 41.4636C29.4009 41.7661 29.734 42.0166 30 42.2131C30.266 42.0166 30.5991 41.7661 30.979 41.4636C32.0015 40.6494 33.3622 39.478 34.718 38.0469C37.4808 35.1306 40 31.3725 40 27.5ZM42.5 27.5C42.5 32.3774 39.3942 36.7444 36.532 39.7656C35.0754 41.3032 33.6234 42.5538 32.5366 43.4192C31.9924 43.8525 31.5373 44.1916 31.2158 44.4238C31.0552 44.5398 30.9274 44.6297 30.8386 44.6912C30.7944 44.7218 30.7592 44.7455 30.7349 44.762C30.7227 44.7702 30.7125 44.7769 30.7056 44.7815C30.7022 44.7838 30.6991 44.7862 30.697 44.7876L30.6946 44.7888V44.7901C30.6942 44.7903 30.6934 44.7901 30 43.75C29.3066 44.7901 29.3058 44.7903 29.3054 44.7901V44.7888L29.303 44.7876C29.3009 44.7862 29.2978 44.7838 29.2944 44.7815C29.2875 44.7769 29.2773 44.7702 29.2651 44.762C29.2408 44.7455 29.2056 44.7218 29.1614 44.6912C29.0726 44.6297 28.9448 44.5398 28.7842 44.4238C28.4626 44.1916 28.0075 43.8525 27.4634 43.4192C26.3765 42.5538 24.9246 41.3032 23.468 39.7656C20.6058 36.7444 17.5 32.3774 17.5 27.5C17.5 24.1848 18.8167 21.0051 21.1609 18.6609C23.5051 16.3167 26.6848 15 30 15C33.3152 15 36.4949 16.3167 38.8391 18.6609C41.1833 21.0051 42.5 24.1848 42.5 27.5Z" fill="#18395C"/>
<path d="M32.5 27.5C32.5 26.1193 31.3807 25 30 25C28.6193 25 27.5 26.1193 27.5 27.5C27.5 28.8807 28.6193 30 30 30C31.3807 30 32.5 28.8807 32.5 27.5ZM35 27.5C35 30.2614 32.7614 32.5 30 32.5C27.2386 32.5 25 30.2614 25 27.5C25 24.7386 27.2386 22.5 30 22.5C32.7614 22.5 35 24.7386 35 27.5Z" fill="#18395C"/>
</svg>
