<svg version="1.1" id="Layer_1" xmlns="http://www.w3.org/2000/svg" xmlns:xlink="http://www.w3.org/1999/xlink" x="0px" y="0px"
	 width="100%" viewBox="0 0 300 300" enable-background="new 0 0 300 300" xml:space="preserve">
<path fill="#FFFFFF" opacity="1.000000" stroke="none" 
	d="
M198.000000,301.000000 
	C132.000015,301.000000 66.500023,301.000000 1.000026,301.000000 
	C1.000018,201.000031 1.000018,101.000061 1.000009,1.000067 
	C100.999947,1.000044 200.999893,1.000044 300.999878,1.000022 
	C300.999939,100.999939 300.999939,200.999878 300.999969,300.999908 
	C266.833344,301.000000 232.666672,301.000000 198.000000,301.000000 
M202.070587,170.504303 
	C202.102417,170.673141 202.134262,170.841995 201.894272,171.715469 
	C199.249603,183.112259 192.953400,192.073700 183.036224,199.242264 
	C164.862106,209.985672 146.051300,211.483810 126.873009,202.417450 
	C112.479668,195.613159 103.307114,183.888794 97.579514,168.453598 
	C93.796913,156.415207 94.144447,144.406601 98.191940,131.747528 
	C105.252930,113.734497 117.654312,101.294121 136.428421,95.901558 
	C155.507584,90.421379 172.495560,95.562813 187.972519,107.632957 
	C195.743774,99.782211 203.007690,92.215721 210.546249,84.933540 
	C213.856613,81.735741 213.372513,79.691780 209.984680,76.985809 
	C198.982468,68.197990 186.824631,61.919346 172.355698,58.611336 
	C151.537628,54.115414 131.353058,55.684128 111.257195,65.029816 
	C91.208893,74.349632 76.642982,89.294800 66.021919,109.252617 
	C52.860199,137.340469 52.745106,165.365128 66.672646,194.000839 
	C72.518417,207.035812 82.471184,216.867142 93.096634,225.726181 
	C107.785271,237.972900 125.272766,244.333282 144.362640,245.438583 
	C170.225128,246.936035 193.840302,240.986786 213.932037,222.617416 
	C228.446503,208.741425 237.067780,191.836212 240.326477,171.298584 
	C240.544998,161.534744 240.763519,151.770905 241.030045,141.496826 
	C240.981110,141.333145 240.932190,141.169479 240.964554,140.146072 
	C240.652283,137.896423 240.339996,135.646790 240.027496,133.395630 
	C210.185974,133.395630 180.842758,133.395630 150.957855,133.395630 
	C150.957855,145.077164 150.926971,156.492218 151.048508,167.905640 
	C151.054611,168.480133 152.378754,169.040588 154.006546,169.673584 
	C170.017288,169.740417 186.028046,169.807251 201.976517,169.922928 
	C201.976517,169.922928 202.015457,169.991791 202.070587,170.504303 
z"/>
<path fill="#EA4335" opacity="1.000000" stroke="none" 
	d="
M173.003799,58.988647 
	C186.824631,61.919346 198.982468,68.197990 209.984680,76.985809 
	C213.372513,79.691780 213.856613,81.735741 210.546249,84.933540 
	C203.007690,92.215721 195.743774,99.782211 187.972519,107.632957 
	C172.495560,95.562813 155.507584,90.421379 136.428421,95.901558 
	C117.654312,101.294121 105.252930,113.734497 97.692886,131.943268 
	C86.941109,124.330070 76.688385,116.521149 66.435661,108.712219 
	C76.642982,89.294800 91.208893,74.349632 111.823532,65.234207 
	C114.397659,64.892982 116.454414,64.483185 118.405418,63.780010 
	C132.570282,58.674728 147.042191,56.601109 162.066650,58.757050 
	C165.649658,59.271194 169.354828,58.934174 173.003799,58.988647 
z"/>
<path fill="#34A853" opacity="1.000000" stroke="none" 
	d="
M213.392776,222.890320 
	C193.840302,240.986786 170.225128,246.936035 144.362640,245.438583 
	C125.272766,244.333282 107.785271,237.972900 93.096634,225.726181 
	C82.471184,216.867142 72.518417,207.035812 66.879364,193.462128 
	C77.282318,185.019989 87.478546,177.116592 97.674782,169.213181 
	C103.307114,183.888794 112.479668,195.613159 126.873009,202.417450 
	C146.051300,211.483810 164.862106,209.985672 183.552597,199.432037 
	C193.843567,207.377991 203.618164,215.134155 213.392776,222.890320 
z"/>
<path fill="#4386F5" opacity="1.000000" stroke="none" 
	d="
M213.662415,222.753876 
	C203.618164,215.134155 193.843567,207.377991 183.868958,199.332001 
	C192.953400,192.073700 199.249603,183.112259 202.267761,171.337616 
	C202.863297,170.775864 203.085327,170.591949 203.307373,170.408020 
	C202.876740,170.269287 202.446091,170.130539 202.015457,169.991791 
	C202.015457,169.991791 201.976517,169.922928 201.882248,169.518768 
	C200.111496,168.742859 198.437286,168.060303 196.758194,168.048126 
	C182.165298,167.942291 167.571548,167.956711 152.981552,167.470795 
	C152.986801,158.196976 153.197311,149.380676 152.899841,140.581558 
	C152.756836,136.351776 153.754776,134.833939 158.345306,134.876297 
	C183.441193,135.107849 208.540314,134.982071 233.638336,134.997009 
	C235.252716,134.997971 236.867020,135.149200 237.708054,135.191574 
	C239.012650,137.580475 239.947952,139.293137 240.883255,141.005798 
	C240.932190,141.169479 240.981110,141.333145 240.716553,142.050964 
	C239.940704,151.500504 239.448059,160.394562 239.063110,169.293304 
	C239.024933,170.176010 239.644012,171.087173 239.958038,171.985138 
	C237.067780,191.836212 228.446503,208.741425 213.662415,222.753876 
z"/>
<path fill="#FABC07" opacity="1.000000" stroke="none" 
	d="
M97.627151,168.833389 
	C87.478546,177.116592 77.282318,185.019989 66.757584,193.123169 
	C52.745106,165.365128 52.860199,137.340469 66.228790,108.982422 
	C76.688385,116.521149 86.941109,124.330070 97.516594,132.280563 
	C94.144447,144.406601 93.796913,156.415207 97.627151,168.833389 
z"/>
<path fill="#4E8DF5" opacity="1.000000" stroke="none" 
	d="
M240.923904,140.575928 
	C239.947952,139.293137 239.012650,137.580475 237.708054,135.191574 
	C236.867020,135.149200 235.252716,134.997971 233.638336,134.997009 
	C208.540314,134.982071 183.441193,135.107849 158.345306,134.876297 
	C153.754776,134.833939 152.756836,136.351776 152.899841,140.581558 
	C153.197311,149.380676 152.986801,158.196976 153.006516,167.889435 
	C153.048386,169.050949 153.068802,169.329269 153.089218,169.607574 
	C152.378754,169.040588 151.054611,168.480133 151.048508,167.905640 
	C150.926971,156.492218 150.957855,145.077164 150.957855,133.395630 
	C180.842758,133.395630 210.185974,133.395630 240.027496,133.395630 
	C240.339996,135.646790 240.652283,137.896423 240.923904,140.575928 
z"/>
<path fill="#EB4C3E" opacity="1.000000" stroke="none" 
	d="
M172.679749,58.799988 
	C169.354828,58.934174 165.649658,59.271194 162.066650,58.757050 
	C147.042191,56.601109 132.570282,58.674728 118.405418,63.780010 
	C116.454414,64.483185 114.397659,64.892982 112.179588,65.178894 
	C131.353058,55.684128 151.537628,54.115414 172.679749,58.799988 
z"/>
<path fill="#2D77F4" opacity="1.000000" stroke="none" 
	d="
M153.547882,169.640579 
	C153.068802,169.329269 153.048386,169.050949 153.003006,168.354004 
	C167.571548,167.956711 182.165298,167.942291 196.758194,168.048126 
	C198.437286,168.060303 200.111496,168.742859 201.913391,169.494339 
	C186.028046,169.807251 170.017288,169.740417 153.547882,169.640579 
z"/>
<path fill="#4D8CF4" opacity="1.000000" stroke="none" 
	d="
M240.142258,171.641861 
	C239.644012,171.087173 239.024933,170.176010 239.063110,169.293304 
	C239.448059,160.394562 239.940704,151.500504 240.692566,142.306091 
	C240.763519,151.770905 240.544998,161.534744 240.142258,171.641861 
z"/>
<path fill="#4E8DF5" opacity="1.000000" stroke="none" 
	d="
M202.043030,170.248047 
	C202.446091,170.130539 202.876740,170.269287 203.307373,170.408020 
	C203.085327,170.591949 202.863297,170.775864 202.403687,170.985321 
	C202.134262,170.841995 202.102417,170.673141 202.043030,170.248047 
z"/>
</svg>