<svg width="50" height="50" viewBox="0 0 50 50" fill="none" xmlns="http://www.w3.org/2000/svg">
<rect width="50" height="50" rx="25" fill="#09162E"/>
<path d="M35.5 37V34.333C35.4999 33.1941 35.0337 32.0954 34.1934 31.2803C33.3516 30.4641 32.2032 30 31 30H20C18.7968 30 17.6484 30.4641 16.8066 31.2803C15.9663 32.0954 15.5001 33.1941 15.5 34.333V37C15.5 37.5523 15.0523 38 14.5 38C13.9477 38 13.5 37.5523 13.5 37V34.333C13.5001 32.6433 14.1929 31.0289 15.415 29.8438C16.6362 28.6598 18.286 28 20 28H31C32.714 28 34.3638 28.6598 35.585 29.8438C36.8071 31.0289 37.4999 32.6433 37.5 34.333V37C37.5 37.5523 37.0523 38 36.5 38C35.9477 38 35.5 37.5523 35.5 37Z" fill="#A6C1D4"/>
<path d="M30 18.333C29.9998 15.9687 28.0144 14 25.5 14C22.9856 14 21.0002 15.9687 21 18.333C21 20.6975 22.9855 22.667 25.5 22.667C28.0145 22.667 30 20.6975 30 18.333ZM32 18.333C32 21.8596 29.0606 24.667 25.5 24.667C21.9394 24.667 19 21.8596 19 18.333C19.0002 14.8066 21.9395 12 25.5 12C29.0605 12 31.9998 14.8066 32 18.333Z" fill="#A6C1D4"/>
</svg>
