<svg width="390" height="844" viewBox="0 0 390 844" fill="none" xmlns="http://www.w3.org/2000/svg">
<g filter="url(#filter0_f_324_32)">
<ellipse cx="34.5" cy="73.5" rx="83.5" ry="78.5" fill="#09162E"/>
<path d="M458 52.5C458 137.276 394.201 206 315.5 206C236.799 206 173 137.276 173 52.5C173 -32.2757 236.799 -101 315.5 -101C394.201 -101 458 -32.2757 458 52.5Z" fill="#44769B"/>
<ellipse cx="199.5" cy="235.5" rx="119.5" ry="120.5" fill="#18395C"/>
<path d="M374 406C374 463.438 322.289 510 258.5 510C194.711 510 143 463.438 143 406C143 348.562 194.711 302 258.5 302C322.289 302 374 348.562 374 406Z" fill="#09162E"/>
<path d="M132 272.5C132 331.318 83.6468 379 24 379C-35.6468 379 -84 331.318 -84 272.5C-84 213.682 -35.6468 166 24 166C83.6468 166 132 213.682 132 272.5Z" fill="#44769B"/>
<ellipse cx="118" cy="600" rx="96" ry="86" fill="#09162E"/>
<path d="M291 507.5C291 558.862 248.691 600.5 196.5 600.5C144.309 600.5 102 558.862 102 507.5C102 456.138 144.309 414.5 196.5 414.5C248.691 414.5 291 456.138 291 507.5Z" fill="#A6C1D4"/>
<path d="M400.5 663C400.5 726.237 351.699 777.5 291.5 777.5C231.301 777.5 182.5 726.237 182.5 663C182.5 599.763 231.301 548.5 291.5 548.5C351.699 548.5 400.5 599.763 400.5 663Z" fill="#18395C"/>
<path d="M213.5 693C213.5 748.505 163.356 793.5 101.5 793.5C39.6441 793.5 -10.5 748.505 -10.5 693C-10.5 637.495 39.6441 592.5 101.5 592.5C163.356 592.5 213.5 637.495 213.5 693Z" fill="#A6C1D4"/>
<path d="M481 820.5C481 888.707 424.812 944 355.5 944C286.188 944 230 888.707 230 820.5C230 752.293 286.188 697 355.5 697C424.812 697 481 752.293 481 820.5Z" fill="#44769B"/>
<ellipse cx="145.5" cy="166.5" rx="80.5" ry="79.5" fill="#A6C1D4"/>
</g>
<defs>
<filter id="filter0_f_324_32" x="-272.6" y="-289.6" width="942.2" height="1422.2" filterUnits="userSpaceOnUse" color-interpolation-filters="sRGB">
<feFlood flood-opacity="0" result="BackgroundImageFix"/>
<feBlend mode="normal" in="SourceGraphic" in2="BackgroundImageFix" result="shape"/>
<feGaussianBlur stdDeviation="94.3" result="effect1_foregroundBlur_324_32"/>
</filter>
</defs>
</svg>
