<svg width="265" height="268" viewBox="0 0 265 268" fill="none" xmlns="http://www.w3.org/2000/svg">
<g clip-path="url(#clip0_915_705)">
<path d="M109.219 266.583C97.7777 264.479 87.4789 261.2 76.5646 256.159C68.2879 252.342 56.3438 245.222 53.229 242.237C52.1237 241.197 50.7673 240.341 50.2021 240.341C49.3355 240.341 33.0458 224.241 28.8258 219.225C25.2463 214.979 18.1627 205.033 18.1627 204.275C18.1627 203.797 16.8942 201.669 15.3368 199.54C13.792 197.423 12.6867 195.539 12.8751 195.356C13.0761 195.185 12.0336 192.432 10.5642 189.239C9.08215 186.058 7.77595 182.902 7.65036 182.229C7.52476 181.556 7.03494 180.406 6.57023 179.684C6.09297 178.95 5.4022 176.638 5.02541 174.546C4.64862 172.441 3.78201 169.322 3.11636 167.597C-1.0283 156.99 -1.04086 112.739 3.09124 100.358C11.4936 75.1312 13.6161 70.421 22.2446 57.7098C29.4537 47.0783 43.4828 32.275 51.659 26.6841C55.4395 24.0904 59.2199 21.4111 60.0614 20.7383C65.2485 16.6031 85.4694 6.93818 91.1337 5.88605C93.4824 5.45785 95.9692 4.71157 96.6599 4.23444C100.101 1.84878 115.675 -0.0597402 131.199 0.00143042C152.173 0.0870693 157.951 0.931225 173.901 6.25307C207.649 17.5085 234.426 40.8389 250.954 73.4062C272.996 116.85 268.789 172.784 240.492 212.667C221.565 239.338 191.849 258.765 159.608 265.58C146.559 268.332 121.465 268.834 109.219 266.583ZM109.219 258.007C115.16 259.206 123.512 259.646 134.967 259.365C155.338 258.875 166.667 256.294 183.886 248.22C224.579 229.147 251.004 191.686 255.689 146.444C257.962 124.435 253.629 99.0122 244.323 79.6578C232.152 54.3821 210.613 32.5809 185.833 20.4446C176.149 15.6978 163.552 11.8196 163.012 13.41C162.786 14.0829 157.725 22.0596 151.771 31.1373C145.818 40.215 140.681 48.314 140.355 49.1337C139.928 50.198 142.603 50.7119 149.9 50.9688L160.035 51.3236L134.816 79.8536C120.95 95.5499 109.383 108.176 109.119 107.919C108.855 107.649 112.56 98.9388 117.346 88.552L126.062 69.6748L117.421 69.0631C112.673 68.7205 108.391 68.0599 107.901 67.5827C107.411 67.1056 110.777 59.1167 115.386 49.8432C119.983 40.5698 126.476 27.467 129.805 20.7383C134.527 11.2079 135.456 8.40627 134.012 8.07595C132.982 7.8435 126.803 8.2717 120.272 9.01798C91.2217 12.3579 68.1497 22.867 47.8535 42.0134C27.2181 61.4901 15.3996 83.1568 9.8734 111.662C5.8669 132.338 8.80584 161.651 16.8942 181.617C32.9202 221.207 67.145 249.529 109.219 258.007Z" fill="#263C59"/>
<path d="M109.22 258.007C80.5588 252.232 55.5527 237.258 37.4544 215.787C37.8563 216.178 38.3084 216.582 38.7983 217.023L42.0763 220.02L49.185 213.352C58.7679 204.385 58.9061 204.262 64.0053 201.192C69.5064 197.876 72.169 198.671 72.169 203.638C72.169 208.508 75.3466 215.873 77.444 215.86C78.3357 215.848 81.6263 214.404 84.7286 212.655C101.307 203.308 110.388 198.745 112.36 198.745C114.922 198.745 116.127 203.198 116.127 212.765C116.127 216.264 116.504 219.506 116.969 219.947C120.335 223.238 126.539 216.215 141.121 192.591C146.409 184.015 147.175 182.033 146.019 179.88C145.266 178.485 143.884 176.895 142.942 176.356C139.061 174.118 142.201 158.776 148.004 151.705L150.955 148.096L160.865 161.357C174.014 178.987 190.066 197.521 192.188 197.521C192.49 197.521 192.741 195.185 192.753 192.322C192.753 185.752 194.939 177.947 196.772 177.947C198.468 177.947 206.004 185.789 218.789 200.874C228.033 211.762 228.46 212.092 230.771 210.061C231.198 209.682 231.6 209.315 231.964 208.985C219.819 225.538 203.517 239.02 183.886 248.22C166.667 256.294 155.338 258.876 134.967 259.365C123.512 259.646 115.16 259.206 109.22 258.007ZM23.9026 195.955C25.7112 198.941 27.3314 201.204 27.5072 200.984C27.6956 200.763 35.6709 190.45 45.2287 178.069C54.7991 165.7 65.2361 152.793 68.4262 149.417L74.2413 143.251L79.5163 145.306C82.405 146.432 85.3189 147.362 85.9719 147.362C87.3786 147.362 97.7151 134.124 102.613 126.062C104.497 122.942 107.436 119.884 109.132 119.26C112.347 118.061 119.192 110.231 127.82 97.8622L132.907 90.5585L139.275 97.85C142.779 101.863 148.531 107.894 152.048 111.259C155.577 114.635 162.862 123.909 168.25 131.873C173.638 139.838 178.862 146.664 179.855 147.031C180.847 147.398 183.622 146.799 186.021 145.685C188.433 144.572 191.133 144.071 192.05 144.597C194.662 146.052 206.267 159.192 231.575 189.361C236.687 195.442 238.608 197.509 240.706 195.234C238.784 198.757 236.699 202.17 234.451 205.474C234.891 202.721 231.5 199.222 222.017 189.753C214.506 182.253 204.032 171.438 198.757 165.713L189.161 155.314L184.929 159.29C179.767 164.134 178.36 164.232 175.534 159.901C165.059 143.875 150.553 126.563 147.602 126.563C145.755 126.563 140.631 119.003 134.062 106.597C133.121 104.823 132.568 105.802 131.262 111.491C130.37 115.406 128.298 122.257 126.652 126.71C123.148 136.216 123.023 137.17 125.572 135.103C128.386 132.827 129.089 134.332 128.134 140.559C126.514 151.13 119.757 161.773 108.064 172.185L97.376 181.703L86.4492 171.818C80.4457 166.386 74.6432 162.104 73.5631 162.312C72.483 162.507 68.2002 166.863 64.0304 171.977C59.8732 177.103 51.2322 187.71 44.8268 195.564C36.2361 206.11 33.5107 209.474 34.7415 212.459C27.4821 203.223 21.4535 192.872 16.8944 181.617C15.9147 179.195 15.0105 176.638 14.1815 173.983C16.9697 182.278 20.4864 190.254 23.9026 195.955ZM253.529 160.293C256.506 145.306 256.92 129.671 254.76 114.66C256.38 125.352 256.732 136.265 255.689 146.444C255.199 151.142 254.471 155.766 253.529 160.293ZM8.88139 147.215C7.60032 134.699 7.85151 122.086 9.8736 111.662C8.15294 120.557 7.90174 134.662 8.88139 147.215Z" fill="#527592"/>
<path d="M116.969 219.946C116.504 219.506 116.127 216.264 116.127 212.765C116.127 203.198 114.921 198.745 112.359 198.745C110.387 198.745 101.307 203.308 84.7282 212.655C81.626 214.404 78.3354 215.848 77.4436 215.86C75.3462 215.873 72.1686 208.508 72.1686 203.638C72.1686 198.671 69.506 197.876 64.0049 201.192C58.9057 204.262 58.7676 204.385 49.1846 213.352L42.0759 220.02L38.7979 217.023C32.2418 211.052 32.2669 210.979 44.8265 195.564C51.2318 187.71 59.8728 177.103 64.03 171.976C68.1998 166.863 72.4826 162.507 73.5627 162.312C74.6428 162.104 80.4454 166.385 86.4488 171.817L97.3756 181.703L108.064 172.184C119.757 161.773 126.514 151.13 128.134 140.559C129.089 134.332 128.385 132.827 125.572 135.103C123.022 137.17 123.148 136.216 126.652 126.71C128.297 122.257 130.37 115.406 131.261 111.491C132.568 105.802 133.12 104.823 134.062 106.597C140.631 119.003 145.755 126.563 147.601 126.563C150.553 126.563 165.059 143.875 175.534 159.901C178.36 164.232 179.766 164.134 184.928 159.29L189.161 155.314L198.756 165.713C204.031 171.438 214.506 182.253 222.017 189.753C236.586 204.287 236.787 204.752 230.771 210.061C228.46 212.092 228.033 211.762 218.789 200.873C206.003 185.789 198.468 177.947 196.772 177.947C194.938 177.947 192.753 185.752 192.753 192.322C192.74 195.185 192.489 197.521 192.188 197.521C190.065 197.521 174.014 178.987 160.864 161.357L150.955 148.095L148.003 151.705C142.201 158.776 139.061 174.117 142.942 176.356C143.884 176.895 145.265 178.485 146.019 179.88C147.174 182.033 146.408 184.015 141.121 192.591C126.539 216.215 120.335 223.237 116.969 219.946ZM23.9022 195.955C19.3682 188.395 14.671 176.809 11.7195 165.835C8.07719 152.353 7.17291 125.609 9.87321 111.662C15.3994 83.1567 27.218 61.4901 47.8533 42.0134C68.1496 22.867 91.2215 12.3579 120.272 9.01795C126.803 8.27167 132.982 7.84347 134.012 8.07592C135.456 8.40624 134.527 11.2079 129.804 20.7382C126.476 27.467 119.983 40.5698 115.386 49.8432C110.777 59.1167 107.411 67.1056 107.901 67.5827C108.39 68.0598 112.673 68.7205 117.421 69.063L126.062 69.6747L117.345 88.552C112.56 98.9388 108.855 107.649 109.119 107.919C109.383 108.176 120.95 95.5499 134.816 79.8535L160.035 51.3235L149.9 50.9688C142.603 50.7118 139.927 50.198 140.354 49.1336C140.681 48.3139 145.818 40.215 151.771 31.1372C157.724 22.0595 162.786 14.0829 163.012 13.41C163.552 11.8196 176.149 15.6978 185.833 20.4446C210.613 32.5809 232.152 54.3821 244.322 79.6578C259.947 112.115 260.06 154.433 244.624 188.028C239.763 198.586 239.349 198.622 231.575 189.361C206.267 159.192 194.662 146.052 192.05 144.597C191.133 144.07 188.432 144.572 186.021 145.685C183.622 146.799 180.846 147.398 179.854 147.031C178.862 146.664 173.637 139.837 168.249 131.873C162.861 123.909 155.577 114.635 152.047 111.259C148.531 107.894 142.778 101.863 139.274 97.8499L132.907 90.5584L127.82 97.8621C119.192 110.231 112.347 118.061 109.131 119.26C107.436 119.884 104.497 122.942 102.613 126.062C97.7147 134.124 87.3782 147.361 85.9716 147.361C85.3185 147.361 82.4046 146.432 79.516 145.306L74.2409 143.251L68.4259 149.417C65.2357 152.793 54.7987 165.7 45.2284 178.069C35.6705 190.45 27.6952 200.763 27.5068 200.984C27.331 201.204 25.7108 198.94 23.9022 195.955Z" fill="#C3DAEB"/>
</g>
<defs>
<clipPath id="clip0_915_705">
<rect width="265" height="268" fill="white"/>
</clipPath>
</defs>
</svg>
