<svg width="60" height="60" viewBox="0 0 60 60" fill="none" xmlns="http://www.w3.org/2000/svg">

<path d="M30.0003 17.3716C30.6447 17.3716 31.2783 17.5376 31.8399 17.8538C32.3311 18.1303 32.7524 18.5139 33.074 18.9744L33.2058 19.177L43.7979 36.8577L43.8076 36.8748C44.1351 37.4418 44.3087 38.0852 44.3106 38.74C44.3123 39.3947 44.1416 40.0389 43.8174 40.6077C43.4932 41.1763 43.0253 41.6502 42.4612 41.9822C41.897 42.3141 41.2554 42.4926 40.6008 42.4998H19.3985C18.7438 42.4925 18.1024 42.3142 17.5381 41.9822C16.9739 41.6502 16.5061 41.1764 16.1819 40.6077C15.8577 40.0389 15.6882 39.3947 15.69 38.74C15.6918 38.0852 15.8655 37.4418 16.1929 36.8748C16.1962 36.8691 16.1993 36.8633 16.2027 36.8577L26.7935 19.177C27.1277 18.626 27.599 18.17 28.1607 17.8538C28.7222 17.5377 29.3559 17.3716 30.0003 17.3716ZM30.0003 19.8716C29.7854 19.8716 29.5734 19.9273 29.3862 20.0327C29.1993 20.1381 29.0422 20.2899 28.9309 20.4734L18.3572 38.1248C18.2481 38.3136 18.1907 38.528 18.19 38.7461C18.1893 38.9641 18.2457 39.1792 18.3535 39.3687C18.4616 39.5583 18.6183 39.7169 18.8064 39.8276C18.9944 39.9382 19.2084 39.9974 19.4265 39.9998H40.574C40.7921 39.9973 41.0061 39.9383 41.1941 39.8276C41.3822 39.717 41.5377 39.5582 41.6458 39.3687C41.7537 39.1791 41.8112 38.9642 41.8106 38.7461C41.8099 38.528 41.7512 38.3136 41.6421 38.1248L31.0684 20.4734L30.9768 20.3416C30.8769 20.2165 30.7534 20.1117 30.6131 20.0327C30.4259 19.9274 30.215 19.8716 30.0003 19.8716Z" fill="currentColor"/>
<path d="M28.75 31.25V26.25C28.75 25.5596 29.3096 25 30 25C30.6904 25 31.25 25.5596 31.25 26.25V31.25C31.25 31.9404 30.6904 32.5 30 32.5C29.3096 32.5 28.75 31.9404 28.75 31.25Z" fill="currentColor"/>
<path d="M30.0122 35C30.7026 35 31.2622 35.5596 31.2622 36.25C31.2622 36.9404 30.7026 37.5 30.0122 37.5H30C29.3096 37.5 28.75 36.9404 28.75 36.25C28.75 35.5596 29.3096 35 30 35H30.0122Z" fill="currentColor"/>
</svg>
