<svg width="60" height="60" viewBox="0 0 60 60" fill="none" xmlns="http://www.w3.org/2000/svg">
<rect width="60" height="60" rx="30" fill="#09162E"/>
<path d="M40 33.75C40.8423 34.5923 40.8813 34.6325 40.8826 34.635L40.8813 34.6362C40.8804 34.6371 40.8799 34.639 40.8789 34.6399C40.8771 34.6416 40.8747 34.6429 40.8728 34.6448C40.8687 34.6488 40.8642 34.6536 40.8594 34.6582C40.8498 34.6673 40.8387 34.6775 40.8264 34.6887C40.8015 34.7113 40.7702 34.738 40.7336 34.7681C40.6603 34.8285 40.563 34.903 40.4395 34.9854C40.192 35.1503 39.8414 35.3474 39.3701 35.5359C38.4253 35.9138 37.0156 36.25 35 36.25C32.8511 36.25 31.0759 35.5268 29.5361 34.9109C27.951 34.2768 26.6009 33.75 25 33.75C23.2659 33.75 22.1753 34.0388 21.5576 34.2859C21.2479 34.4098 21.0513 34.5254 20.9473 34.5947L20.8557 34.6606C20.8581 34.6585 20.8621 34.6553 20.8667 34.6509L20.8826 34.635L20.8813 34.6338C20.5238 34.9903 19.988 35.098 19.5215 34.9048C19.0545 34.7113 18.75 34.2555 18.75 33.75V18.75C18.75 18.4185 18.8818 18.1006 19.1162 17.8662L20 18.75C19.1577 17.9077 19.1187 17.8675 19.1174 17.865L19.1187 17.8638C19.1196 17.8629 19.1201 17.861 19.1211 17.8601C19.1229 17.8584 19.1253 17.8571 19.1272 17.8552C19.1313 17.8512 19.1358 17.8464 19.1406 17.8418C19.1502 17.8327 19.1613 17.8225 19.1736 17.8113C19.1985 17.7887 19.2298 17.762 19.2664 17.7319C19.3397 17.6715 19.437 17.597 19.5605 17.5146C19.808 17.3497 20.1586 17.1526 20.6299 16.9641C21.5747 16.5862 22.9844 16.25 25 16.25C27.1489 16.25 28.9241 16.9732 30.4639 17.5891C32.049 18.2232 33.3991 18.75 35 18.75C36.7341 18.75 37.8247 18.4612 38.4424 18.2141C38.7521 18.0902 38.9487 17.9746 39.0527 17.9053L39.1443 17.8394C39.1419 17.8415 39.1379 17.8447 39.1333 17.8491L39.1187 17.8638C39.4762 17.5082 40.0125 17.4022 40.4785 17.5952C40.9455 17.7887 41.25 18.2445 41.25 18.75V33.75C41.25 34.0815 41.1182 34.3994 40.8838 34.6338L40 33.75ZM25 18.75C23.2659 18.75 22.1753 19.0388 21.5576 19.2859C21.4388 19.3334 21.3367 19.3796 21.25 19.4226V31.748C22.1596 31.4678 23.385 31.25 25 31.25C27.1489 31.25 28.9241 31.9732 30.4639 32.5891C32.049 33.2232 33.3991 33.75 35 33.75C36.7341 33.75 37.8247 33.4612 38.4424 33.2141C38.5614 33.1665 38.6632 33.1192 38.75 33.0762V20.7507C37.8404 21.031 36.6152 21.25 35 21.25C32.8511 21.25 31.0759 20.5268 29.5361 19.9109C27.951 19.2768 26.6009 18.75 25 18.75Z" fill="#18395C"/>
<path d="M18.75 42.5V33.75C18.75 33.0596 19.3096 32.5 20 32.5C20.6904 32.5 21.25 33.0596 21.25 33.75V42.5C21.25 43.1904 20.6904 43.75 20 43.75C19.3096 43.75 18.75 43.1904 18.75 42.5Z" fill="#18395C"/>
</svg>
