<svg width="60" height="60" viewBox="0 0 60 60" fill="none" xmlns="http://www.w3.org/2000/svg">
<path d="M0 30C0 13.4315 13.4315 0 30 0C46.5685 0 60 13.4315 60 30V60H30C13.4315 60 0 46.5685 0 30Z" fill="#09162E"/>
<path d="M33.064 34.199C30.189 34.362 26.755 34.282 24.4 33.997C21.244 33.616 19.159 32.53 17.945 30.636C17.04 29.226 16.705 27.261 17.042 25.347C17.474 22.891 18.813 21.052 20.928 20.011C22.957 19.012 24.557 18.799 30.036 18.801C34.009 18.802 35.822 18.926 37.2 19.291C39.962 20.023 41.767 21.63 42.617 24.116C42.903 24.952 42.941 25.199 42.979 26.463C43.029 28.113 42.885 28.932 42.349 30.045C41.935 30.904 41.346 31.619 40.55 32.228C38.926 33.469 37.002 33.976 33.064 34.199ZM27.35 35.899C29.497 35.984 33.588 35.926 34.5 35.797C34.655 35.775 34.883 35.745 35.136 35.714C34.926 35.75 34.814 35.792 34.828 35.833C34.842 35.877 35.132 35.986 35.525 36.1L34.819 35.932L34.763 36.208C34.62 36.927 33.554 37.64 32.15 37.957C31.023 38.211 28.821 38.21 27.8 37.956C26.154 37.545 25.203 36.839 25.198 36.023C25.198 35.872 25.165 35.801 25.124 35.861C25.116 35.812 25 35.767 24.774 35.723C25.585 35.804 26.444 35.862 27.35 35.899ZM21.725 27.434C22.154 27.607 22.364 27.456 22.548 26.844C22.813 25.961 23.271 25.6 24.129 25.6C24.863 25.6 25.266 25.876 25.631 26.631C25.893 27.17 25.935 27.21 26.221 27.181C26.391 27.164 26.575 27.079 26.629 26.991C26.905 26.55 26.253 25.349 25.475 24.866C24.962 24.548 23.95 24.394 23.57 24.578C23.449 24.636 23.236 24.709 23.097 24.739C22.71 24.821 22.049 25.443 21.812 25.946C21.574 26.453 21.521 27.352 21.725 27.434ZM37.564 27.275C37.842 27.72 38.401 27.447 38.399 26.868C38.396 26.037 37.427 24.823 36.584 24.595C35.942 24.422 34.993 24.527 34.478 24.828C33.891 25.172 33.442 25.824 33.355 26.457C33.232 27.362 33.763 27.388 34.306 26.505C34.735 25.809 35.08 25.585 35.732 25.579C36.574 25.571 37.182 26.012 37.355 26.756C37.393 26.918 37.487 27.151 37.564 27.275ZM28.89 30.544C29.83 30.834 31.058 30.678 31.95 30.156C32.447 29.864 32.641 29.588 32.55 29.301C32.45 28.984 32.146 28.966 31.715 29.252C30.63 29.97 29.295 29.963 28.19 29.232C27.774 28.956 27.451 28.983 27.35 29.301C27.316 29.406 27.336 29.58 27.393 29.687C27.52 29.924 28.268 30.353 28.89 30.544ZM21.92 29.58C22.229 29.889 22.809 29.49 22.604 29.108C22.412 28.748 21.8 28.894 21.8 29.3C21.8 29.388 21.854 29.514 21.92 29.58ZM40.001 29.551C40.069 29.633 40.203 29.7 40.3 29.7C40.561 29.7 40.732 29.439 40.659 29.151C40.61 28.954 40.533 28.9 40.3 28.9C40.067 28.9 39.99 28.954 39.941 29.151C39.905 29.295 39.93 29.466 40.001 29.551ZM19.32 29.58C19.606 29.866 20.043 29.603 19.983 29.181C19.923 28.758 19.2 28.861 19.2 29.292C19.2 29.385 19.254 29.514 19.32 29.58ZM20.62 29.58C20.686 29.646 20.815 29.7 20.908 29.7C21.339 29.7 21.442 28.977 21.019 28.917C20.597 28.857 20.334 29.294 20.62 29.58ZM38.72 29.58C38.786 29.646 38.915 29.7 39.008 29.7C39.439 29.7 39.542 28.977 39.119 28.917C38.697 28.857 38.434 29.294 38.72 29.58ZM37.409 29.56C37.565 29.749 37.896 29.704 38.039 29.475C38.2 29.218 37.996 28.95 37.639 28.95C37.413 28.95 37.343 29.001 37.317 29.181C37.299 29.307 37.34 29.478 37.409 29.56ZM21.1 35.134C20.353 34.967 19.637 34.738 18.994 34.467C20.086 34.912 21.453 35.262 23.066 35.509C22.471 35.43 22.018 35.339 21.1 35.134ZM35.615 35.656C35.8 35.634 35.984 35.613 36.15 35.595C36.94 35.507 37.69 35.388 38.383 35.241C37.512 35.431 36.568 35.574 35.621 35.655C35.619 35.656 35.617 35.656 35.615 35.656ZM39.074 37.53C38.481 37.121 37.711 36.758 36.812 36.46C37.727 36.752 38.459 37.099 39.074 37.53ZM42.509 33.568C42.94 33.264 43.29 32.97 43.338 32.844C43.284 32.985 42.949 33.268 42.509 33.568ZM24.465 36.106C24.428 36.115 24.389 36.124 24.35 36.133C23.839 36.249 23.347 36.391 22.889 36.552C23.393 36.371 23.928 36.218 24.465 36.106Z" fill="#01040A"/>
<path d="M22.078 36.874C22.746 36.576 23.522 36.321 24.35 36.133C24.735 36.046 25.083 35.924 25.123 35.862C25.164 35.8 25.198 35.871 25.198 36.023C25.203 36.839 26.154 37.545 27.8 37.956C28.821 38.21 31.023 38.211 32.15 37.957C33.554 37.64 34.62 36.927 34.763 36.208L34.819 35.932L35.584 36.114C36.452 36.319 37.239 36.582 37.913 36.886C37.712 36.82 37.668 36.883 37.394 37.395C37.088 37.971 36.248 38.845 34.803 40.094C33.913 40.863 33.469 41.593 33.096 42.9C32.732 44.173 31.896 45.175 30.967 45.45C29.991 45.74 29.098 45.602 28.278 45.035C27.712 44.644 27.367 44.134 27.05 43.223C26.411 41.384 26.305 41.194 25.454 40.35C25.01 39.91 24.325 39.269 23.932 38.926C23.325 38.397 22.918 37.887 22.345 36.942C22.287 36.847 22.241 36.814 22.078 36.874ZM21.331 12.903C22.633 12.238 24.115 11.657 25.275 11.393C26.935 11.014 28.002 10.901 29.95 10.901C33.418 10.9 36.071 11.504 38.6 12.871C38.745 12.949 38.887 13.029 39.027 13.11C38.956 13.076 38.896 13.053 38.848 13.041C38.553 12.967 37.683 13.526 36.35 14.648C35.512 15.353 35.009 15.777 34.431 16.03C33.553 16.415 32.502 16.403 29.841 16.379C27.388 16.357 26.418 16.367 25.599 16.019C25.002 15.766 24.486 15.324 23.534 14.542C22.993 14.097 22.269 13.542 21.925 13.308L21.331 12.903ZM19.308 34.59C18.122 34.147 17.23 33.601 16.664 32.961C16.502 32.778 16.364 32.75 15.614 32.747C14.893 32.745 14.655 32.7 14.178 32.479C13.58 32.202 12.564 31.339 12.658 31.188C12.665 31.176 12.668 31.164 12.667 31.154C12.93 31.214 13.007 31.172 13.193 30.936C13.658 30.345 13.999 28.569 13.997 26.75C13.994 23.643 13.141 21.38 12.366 22.151C12.442 22.05 12.524 21.952 12.613 21.855C13.25 21.158 13.641 20.92 14.408 20.763L15.026 20.637L15.263 19.817C15.286 19.736 15.311 19.655 15.336 19.574C14.9 20.997 14.768 22.638 14.833 24.95C15.003 30.897 15.756 32.849 18.4 34.191C18.678 34.332 18.981 34.465 19.308 34.59ZM46.818 30.996C47.062 31.223 47.226 31.251 47.422 31.049C47.044 31.521 46.511 32.054 46.177 32.265C45.605 32.626 44.672 32.834 43.98 32.756C43.626 32.716 43.47 32.715 43.393 32.769C44.136 31.892 44.54 30.747 44.793 29.05C45.125 26.811 45.212 22.69 44.957 21.241C44.721 19.896 44.296 18.689 43.668 17.593C44.087 18.317 44.415 19.086 44.651 19.893L44.868 20.636L45.488 20.763C46.247 20.917 46.657 21.162 47.233 21.802C47.337 21.918 47.432 22.032 47.519 22.148C47.309 21.946 47.085 21.941 46.869 22.179C46.613 22.462 46.317 23.21 46.143 24.011C45.918 25.054 45.911 28.266 46.133 29.305C46.33 30.232 46.531 30.728 46.818 30.996ZM20.444 47.552C20.054 47.162 19.672 46.687 19.501 46.353L19.252 45.868L19.076 47.102C18.991 47.7 18.866 48.283 18.782 48.498C18.869 48.269 19 47.592 19.098 46.84C19.42 44.389 19.492 44.001 19.843 42.8C20.028 42.167 20.235 41.316 20.302 40.908C20.509 39.646 20.271 38.676 19.768 38.121L19.976 38.314L20.413 37.907C20.439 37.884 20.465 37.86 20.492 37.836L20.206 38.104L20.565 38.756C20.945 39.448 21.018 39.681 21.252 40.95C21.612 42.902 21.317 45.92 20.656 47.049C20.537 47.253 20.453 47.456 20.444 47.552ZM29.323 44.28C30.567 44.699 31.855 43.76 31.836 42.447C31.82 41.369 31.019 40.599 29.913 40.6C29.001 40.601 28.135 41.465 28.108 42.4C28.087 43.145 28.681 44.064 29.323 44.28ZM39.484 37.843C39.486 37.845 39.488 37.847 39.49 37.849C39.817 38.129 40.057 38.27 40.096 38.206C40.117 38.172 40.186 38.105 40.275 38.029C39.906 38.387 39.676 38.958 39.623 39.698C39.565 40.513 39.698 41.327 40.143 42.88C40.389 43.74 40.531 44.451 40.746 46.027C40.69 45.978 40.595 46.089 40.466 46.359C40.319 46.668 39.937 47.122 39.507 47.531C39.586 47.412 39.546 47.328 39.358 46.99C39.223 46.748 39.009 46.19 38.883 45.75C38.683 45.048 38.654 44.723 38.652 43.1C38.65 40.934 38.81 40.024 39.405 38.84L39.777 38.1L39.484 37.843ZM47.737 29.675C47.564 30.153 47.378 30.213 47.15 29.864C46.556 28.957 46.554 24.453 47.147 23.306C47.666 22.303 48.137 23.832 48.131 26.5C48.128 28.051 48.025 28.879 47.737 29.675ZM12.79 29.919C12.737 30.018 12.628 30.1 12.549 30.1C12.035 30.1 11.63 27.439 11.814 25.277C12.025 22.805 12.546 22.264 12.996 24.051C13.369 25.533 13.245 29.068 12.79 29.919ZM21.725 27.434C21.626 27.394 21.588 27.161 21.602 26.874C21.605 27.037 21.656 27.216 21.72 27.28C21.786 27.346 21.92 27.4 22.018 27.4C22.17 27.4 22.18 27.361 22.09 27.125C22.033 26.974 21.978 26.827 21.968 26.8C21.958 26.773 21.909 26.764 21.859 26.78C21.809 26.797 21.731 26.752 21.686 26.68C21.656 26.633 21.633 26.631 21.619 26.672C21.65 26.419 21.716 26.151 21.812 25.946C22.049 25.443 22.71 24.821 23.097 24.739C23.236 24.709 23.449 24.636 23.57 24.578C23.95 24.394 24.962 24.548 25.475 24.866C26.253 25.349 26.905 26.55 26.629 26.991C26.575 27.079 26.391 27.164 26.221 27.181C25.935 27.21 25.893 27.17 25.631 26.631C25.266 25.876 24.863 25.6 24.129 25.6C23.271 25.6 22.813 25.961 22.548 26.844C22.364 27.456 22.154 27.607 21.725 27.434ZM28.89 30.544C28.268 30.353 27.52 29.924 27.393 29.687C27.336 29.58 27.316 29.406 27.35 29.301C27.451 28.983 27.774 28.956 28.19 29.232C29.295 29.963 30.63 29.97 31.715 29.252C32.146 28.966 32.45 28.984 32.55 29.301C32.641 29.588 32.447 29.864 31.95 30.156C31.058 30.678 29.83 30.834 28.89 30.544ZM27.702 14.602C27.886 14.786 28.041 14.8 29.957 14.8C31.183 14.8 32.091 14.758 32.207 14.696C32.423 14.581 32.464 14.204 32.28 14.02C32.131 13.871 28.08 13.85 27.805 13.997C27.524 14.148 27.484 14.384 27.702 14.602ZM30.443 43.447C30.053 43.632 29.943 43.633 29.531 43.454C29.191 43.306 28.9 42.856 28.9 42.48C28.901 42.128 29.241 41.649 29.593 41.503C30.052 41.313 30.646 41.507 30.904 41.93C31.012 42.106 31.099 42.327 31.1 42.422C31.1 42.767 30.762 43.295 30.443 43.447ZM22.11 26.24C22.222 26.383 22.38 26.5 22.46 26.5C22.617 26.5 22.801 26.121 22.732 25.941C22.645 25.711 23.027 25.573 23.894 25.524C24.641 25.481 24.815 25.5 24.954 25.64C25.053 25.738 25.198 25.782 25.31 25.747C25.576 25.662 25.74 25.781 25.596 25.955C25.448 26.133 25.537 26.265 25.848 26.324C26.211 26.394 26.367 26.167 26.195 25.822C25.986 25.403 25.684 25.1 25.477 25.1C25.373 25.1 25.317 25.054 25.351 24.998C25.386 24.942 25.265 24.834 25.083 24.757C24.864 24.665 24.729 24.652 24.688 24.72C24.65 24.781 24.428 24.798 24.137 24.762C23.869 24.729 23.541 24.702 23.408 24.702C23.154 24.701 22.772 24.974 22.85 25.1C22.928 25.226 22.537 25.508 22.371 25.444C22.263 25.403 22.165 25.478 22.059 25.682C21.916 25.959 21.919 25.998 22.11 26.24ZM37.564 27.275C37.487 27.151 37.393 26.918 37.355 26.756C37.182 26.012 36.574 25.571 35.732 25.579C35.649 25.58 35.572 25.584 35.498 25.592C35.666 25.563 35.863 25.544 36.1 25.529C36.965 25.473 37 25.479 37 25.679C37 25.988 37.402 26.621 37.56 26.56C37.753 26.486 37.816 26.645 37.707 26.931C37.655 27.068 37.64 27.207 37.673 27.24C37.761 27.327 37.767 27.324 38.045 27.045C38.351 26.74 38.385 26.4 38.11 26.4C37.959 26.4 37.924 26.335 37.942 26.086C37.965 25.749 37.595 25.2 37.345 25.2C37.269 25.2 37.161 25.114 37.104 25.008C36.97 24.756 36.307 24.527 36.203 24.696C36.149 24.782 35.992 24.789 35.624 24.722C35.053 24.619 34.5 24.778 34.5 25.045C34.5 25.13 34.455 25.206 34.4 25.212C34.345 25.219 34.246 25.231 34.18 25.238C33.961 25.26 33.425 26.077 33.35 26.5C33.352 26.486 33.353 26.472 33.355 26.457C33.442 25.824 33.891 25.172 34.478 24.828C34.993 24.527 35.942 24.422 36.584 24.595C37.427 24.823 38.396 26.037 38.399 26.868C38.401 27.447 37.842 27.72 37.564 27.275ZM21.92 29.58C21.854 29.514 21.8 29.388 21.8 29.3C21.8 28.894 22.412 28.748 22.604 29.108C22.809 29.49 22.229 29.889 21.92 29.58ZM40.001 29.551C39.93 29.466 39.905 29.295 39.941 29.151C39.99 28.954 40.067 28.9 40.3 28.9C40.533 28.9 40.61 28.954 40.659 29.151C40.732 29.439 40.561 29.7 40.3 29.7C40.203 29.7 40.069 29.633 40.001 29.551ZM19.32 29.58C19.254 29.514 19.2 29.385 19.2 29.292C19.2 28.861 19.923 28.758 19.983 29.181C20.043 29.603 19.606 29.866 19.32 29.58ZM20.62 29.58C20.334 29.294 20.597 28.857 21.019 28.917C21.442 28.977 21.339 29.7 20.908 29.7C20.815 29.7 20.686 29.646 20.62 29.58ZM38.72 29.58C38.434 29.294 38.697 28.857 39.119 28.917C39.542 28.977 39.439 29.7 39.008 29.7C38.915 29.7 38.786 29.646 38.72 29.58ZM37.409 29.56C37.34 29.478 37.299 29.307 37.317 29.181C37.343 29.001 37.413 28.95 37.639 28.95C37.996 28.95 38.2 29.218 38.039 29.475C37.896 29.704 37.565 29.749 37.409 29.56ZM29.335 30.446C29.411 30.644 29.671 30.643 29.87 30.445C29.977 30.337 30.117 30.31 30.324 30.355C30.552 30.405 30.613 30.389 30.577 30.286C30.545 30.193 30.354 30.151 29.972 30.152C29.363 30.155 29.244 30.21 29.335 30.446ZM47.885 22.729C48.172 23.295 48.325 23.963 48.394 24.932C48.291 24.004 48.108 23.243 47.885 22.729ZM35.293 49.524C34.745 49.651 34.162 49.757 33.55 49.841C33.097 49.903 32.499 49.953 31.848 49.989C33.096 49.902 34.308 49.742 35.293 49.524ZM48.426 27.866C48.404 28.498 48.347 28.807 48.218 29.286C48.174 29.449 48.122 29.623 48.069 29.788C48.239 29.242 48.361 28.585 48.426 27.866ZM41.584 48.838C41.642 48.862 41.705 48.883 41.772 48.901C41.45 48.826 41.222 48.7 41.146 48.517C41.128 48.475 41.105 48.385 41.079 48.265C41.179 48.607 41.316 48.727 41.584 48.838ZM23.313 49.142C22.429 48.85 21.671 48.497 21.069 48.089C21.017 48.054 20.963 48.014 20.907 47.97C20.924 47.982 20.941 47.994 20.958 48.006C21.614 48.457 22.4 48.836 23.313 49.142ZM13.42 46.29C13.467 45.548 13.599 44.746 13.801 43.941C13.613 44.729 13.478 45.579 13.42 46.29ZM43.349 32.821C43.345 32.828 43.342 32.836 43.338 32.844C43.302 32.938 43.096 33.127 42.814 33.344C43.009 33.18 43.187 33.006 43.349 32.821ZM38.288 48.439C37.728 48.751 37.06 49.025 36.304 49.255C37.024 49.03 37.72 48.741 38.288 48.439ZM46.29 47.939C45.912 48.347 45.072 48.662 44.177 48.836C45.084 48.65 45.934 48.323 46.29 47.939ZM14.52 41.768C14.623 41.522 14.732 41.28 14.846 41.045C15.364 39.977 16.005 39.097 16.673 38.493C15.838 39.254 15.11 40.365 14.52 41.768ZM17.986 15.282C18.389 14.874 18.827 14.492 19.295 14.139C19.389 14.068 19.487 13.997 19.591 13.925C19.028 14.33 18.478 14.796 17.986 15.282ZM34.931 25.786C34.711 25.93 34.519 26.159 34.306 26.505C33.984 27.029 33.666 27.233 33.486 27.123C33.674 27.209 34 27.003 34.306 26.505C34.525 26.149 34.7 25.928 34.931 25.786ZM41.2 37.608C41.534 37.568 41.897 37.603 42.17 37.72C42.016 37.654 41.659 37.6 41.376 37.6C41.316 37.6 41.258 37.603 41.2 37.608ZM11.805 29.724C11.739 29.53 11.681 29.334 11.639 29.15C11.512 28.593 11.436 27.557 11.421 26.556C11.443 27.562 11.522 28.629 11.64 29.15C11.682 29.335 11.739 29.531 11.805 29.724ZM15.069 48.666C14.615 48.538 14.228 48.376 13.942 48.19C14.232 48.364 14.632 48.533 15.069 48.666ZM40.208 13.869C40.668 14.196 41.098 14.543 41.496 14.909C41.112 14.563 40.647 14.19 40.208 13.869ZM18.75 48.564C18.604 48.787 18.281 48.921 17.776 48.964C18.269 48.913 18.608 48.778 18.75 48.564ZM47.99 30.024C47.919 30.228 47.851 30.4 47.801 30.498C47.763 30.572 47.71 30.658 47.647 30.75C47.774 30.548 47.889 30.303 47.99 30.024ZM18.801 37.611C19.036 37.633 19.218 37.695 19.406 37.82C19.223 37.71 19.02 37.638 18.801 37.611ZM40.909 47.279C40.874 47.041 40.844 46.81 40.825 46.625C40.852 46.83 40.88 47.047 40.909 47.279ZM20.907 37.516C21.14 37.357 21.404 37.202 21.694 37.056C21.648 37.08 21.598 37.106 21.545 37.134C21.335 37.245 21.103 37.385 20.907 37.516ZM17.589 37.852C17.847 37.723 18.103 37.642 18.35 37.612C18.108 37.643 17.852 37.722 17.589 37.852ZM12.385 30.953C12.253 30.776 12.09 30.457 11.944 30.097C12.087 30.45 12.248 30.765 12.385 30.953ZM40.524 37.833C40.601 37.78 40.691 37.736 40.791 37.701C40.698 37.736 40.608 37.78 40.524 37.833ZM41.412 34.244C41.404 34.248 41.396 34.252 41.389 34.256C41.397 34.252 41.404 34.248 41.412 34.244Z" fill="#2C5684"/>
<path d="M41.584 48.838C41.147 48.656 41.058 48.452 40.912 47.3C40.592 44.778 40.447 43.943 40.143 42.88C39.698 41.327 39.565 40.513 39.623 39.698C39.718 38.381 40.37 37.6 41.376 37.6C41.659 37.6 42.016 37.654 42.17 37.72C44.321 38.64 46.352 42.68 46.566 46.461L46.629 47.571L46.29 47.939C45.55 48.739 42.671 49.289 41.584 48.838ZM16.054 48.889C14.925 48.724 13.721 48.212 13.502 47.803C13.21 47.258 13.509 44.698 14.064 43C14.72 40.989 15.623 39.437 16.702 38.468C18.801 36.58 20.791 37.929 20.302 40.908C20.235 41.316 20.028 42.167 19.843 42.8C19.492 44.001 19.42 44.389 19.098 46.84C18.988 47.683 18.837 48.431 18.752 48.56C18.481 48.974 17.479 49.096 16.054 48.889ZM29.323 44.28C28.681 44.064 28.087 43.145 28.108 42.4C28.135 41.465 29.001 40.601 29.913 40.6C31.019 40.599 31.82 41.369 31.836 42.447C31.855 43.76 30.567 44.699 29.323 44.28ZM37.673 27.24C37.64 27.207 37.655 27.068 37.707 26.931C37.816 26.645 37.753 26.486 37.56 26.56C37.402 26.621 37 25.988 37 25.679C37 25.479 36.965 25.473 36.1 25.529C35.041 25.597 34.776 25.742 34.306 26.505C33.784 27.354 33.206 27.354 33.349 26.506C33.42 26.085 33.96 25.26 34.18 25.238C34.246 25.231 34.345 25.219 34.4 25.212C34.455 25.206 34.5 25.13 34.5 25.045C34.5 24.778 35.053 24.619 35.624 24.722C35.992 24.789 36.149 24.782 36.203 24.696C36.307 24.527 36.97 24.756 37.104 25.008C37.161 25.114 37.269 25.2 37.345 25.2C37.595 25.2 37.965 25.749 37.942 26.086C37.924 26.335 37.959 26.4 38.11 26.4C38.385 26.4 38.351 26.74 38.045 27.045C37.767 27.324 37.761 27.327 37.673 27.24ZM27.702 14.602C27.484 14.384 27.524 14.148 27.805 13.997C28.08 13.85 32.131 13.871 32.28 14.02C32.464 14.204 32.423 14.581 32.207 14.696C32.091 14.758 31.183 14.8 29.957 14.8C28.041 14.8 27.886 14.786 27.702 14.602ZM30.443 43.447C30.762 43.295 31.1 42.767 31.1 42.422C31.099 42.327 31.012 42.106 30.904 41.93C30.646 41.507 30.052 41.313 29.593 41.503C29.241 41.649 28.901 42.128 28.9 42.48C28.9 42.856 29.191 43.306 29.531 43.454C29.943 43.633 30.053 43.632 30.443 43.447ZM22.11 26.24C21.919 25.998 21.916 25.959 22.059 25.682C22.165 25.478 22.263 25.403 22.371 25.444C22.537 25.508 22.928 25.226 22.85 25.1C22.772 24.974 23.154 24.701 23.408 24.702C23.541 24.702 23.869 24.729 24.137 24.762C24.428 24.798 24.65 24.781 24.688 24.72C24.729 24.652 24.864 24.665 25.083 24.757C25.265 24.834 25.386 24.942 25.351 24.998C25.317 25.054 25.373 25.1 25.477 25.1C25.684 25.1 25.986 25.403 26.195 25.822C26.367 26.167 26.211 26.394 25.848 26.324C25.537 26.265 25.448 26.133 25.596 25.955C25.74 25.781 25.576 25.662 25.31 25.747C25.198 25.782 25.053 25.738 24.954 25.64C24.815 25.5 24.641 25.481 23.894 25.524C23.027 25.573 22.645 25.711 22.732 25.941C22.801 26.121 22.617 26.5 22.46 26.5C22.38 26.5 22.222 26.383 22.11 26.24ZM29.335 30.446C29.244 30.21 29.363 30.155 29.972 30.152C30.354 30.151 30.545 30.193 30.577 30.286C30.613 30.389 30.552 30.405 30.324 30.355C30.117 30.31 29.977 30.337 29.87 30.445C29.671 30.643 29.411 30.644 29.335 30.446ZM21.72 27.28C21.654 27.214 21.601 27.023 21.602 26.855C21.603 26.656 21.632 26.595 21.686 26.68C21.731 26.752 21.809 26.797 21.859 26.78C21.909 26.764 21.958 26.773 21.968 26.8C21.978 26.827 22.033 26.974 22.09 27.125C22.18 27.361 22.17 27.4 22.018 27.4C21.92 27.4 21.786 27.346 21.72 27.28Z" fill="#B5C8DC"/>
<path d="M27.95 50.0001C24.885 49.7631 22.541 49.0951 20.958 48.0061C20.712 47.8361 20.483 47.6541 20.45 47.6001C20.417 47.5471 20.51 47.2981 20.656 47.0491C21.317 45.9201 21.612 42.9021 21.252 40.9501C21.018 39.6811 20.945 39.4481 20.565 38.7561L20.206 38.1041L20.528 37.8021C20.705 37.6361 21.163 37.3351 21.545 37.1341C22.182 36.7981 22.248 36.7831 22.345 36.9421C22.918 37.8871 23.325 38.3971 23.932 38.9261C24.325 39.2691 25.01 39.9101 25.454 40.3501C26.305 41.1941 26.411 41.3841 27.05 43.2231C27.367 44.1341 27.712 44.6441 28.278 45.0351C29.098 45.6021 29.991 45.7401 30.967 45.4501C31.896 45.1751 32.732 44.1731 33.096 42.9001C33.469 41.5931 33.913 40.8631 34.803 40.0941C36.248 38.8451 37.088 37.9711 37.394 37.3951C37.695 36.8311 37.718 36.8121 37.979 36.9101C38.396 37.0671 39.072 37.4811 39.442 37.8071L39.777 38.1001L39.405 38.8401C38.81 40.0241 38.65 40.9341 38.652 43.1001C38.654 44.7231 38.683 45.0481 38.883 45.7501C39.009 46.1901 39.223 46.7481 39.358 46.9901C39.593 47.4131 39.596 47.4391 39.427 47.6311C38.87 48.2611 37.233 49.0431 35.637 49.4431C33.604 49.9521 30.365 50.1861 27.95 50.0001ZM27.35 35.8991C23.361 35.7391 20.3 35.1561 18.4 34.1911C15.756 32.8491 15.003 30.8971 14.833 24.9501C14.722 21.0291 15.181 19.0381 16.722 16.7681C17.586 15.4961 19.173 14.0721 20.649 13.2471L21.3 12.8831L21.925 13.3081C22.269 13.5421 22.993 14.0971 23.534 14.5421C25.791 16.3971 25.6 16.3411 29.841 16.3791C34.255 16.4191 34.239 16.4241 36.35 14.6481C37.683 13.5261 38.553 12.9671 38.848 13.0411C39.306 13.1561 40.945 14.3521 41.807 15.2001C43.512 16.8781 44.534 18.8381 44.957 21.2411C45.212 22.6901 45.125 26.8111 44.793 29.0501C44.371 31.8851 43.525 33.1801 41.389 34.2561C40.134 34.8871 38.294 35.3581 36.15 35.5951C35.6 35.6551 34.858 35.7461 34.5 35.7971C33.588 35.9261 29.497 35.9841 27.35 35.8991ZM33.064 34.1991C37.002 33.9761 38.926 33.4691 40.55 32.2281C41.346 31.6191 41.935 30.9041 42.349 30.0451C42.885 28.9321 43.029 28.1131 42.979 26.4631C42.941 25.1991 42.903 24.9521 42.617 24.1161C41.767 21.6301 39.962 20.0231 37.2 19.2911C35.822 18.9261 34.009 18.8021 30.036 18.8011C24.557 18.7991 22.957 19.0121 20.928 20.0111C18.813 21.0521 17.474 22.8911 17.042 25.3471C16.705 27.2611 17.04 29.2261 17.945 30.6361C19.159 32.5301 21.244 33.6161 24.4 33.9971C26.755 34.2821 30.189 34.3621 33.064 34.1991ZM12.578 31.1321C12.34 31.0691 11.831 29.9941 11.64 29.1501C11.426 28.2071 11.34 25.4701 11.495 24.5551C11.652 23.6311 11.866 22.9481 12.165 22.4251C12.986 20.9901 13.994 23.3711 13.997 26.7501C13.999 28.5691 13.658 30.3451 13.193 30.9361C12.988 31.1971 12.915 31.2201 12.578 31.1321ZM12.79 29.9191C13.245 29.0681 13.369 25.5331 12.996 24.0511C12.546 22.2641 12.025 22.8051 11.814 25.2771C11.63 27.4391 12.035 30.1001 12.549 30.1001C12.628 30.1001 12.737 30.0181 12.79 29.9191ZM46.818 30.9961C46.531 30.7281 46.33 30.2321 46.133 29.3051C45.911 28.2661 45.918 25.0541 46.143 24.0111C46.317 23.2101 46.613 22.4621 46.869 22.1791C47.507 21.4741 48.225 22.9011 48.427 25.2761C48.62 27.5491 48.303 29.7381 47.63 30.7761C47.324 31.2481 47.142 31.2971 46.818 30.9961ZM47.737 29.6751C48.025 28.8791 48.128 28.0511 48.131 26.5001C48.137 23.8321 47.666 22.3031 47.147 23.3061C46.554 24.4531 46.556 28.9571 47.15 29.8641C47.378 30.2131 47.564 30.1531 47.737 29.6751Z" fill="#D4DFEB"/>
</svg>
