<svg xmlns="http://www.w3.org/2000/svg" width="265" height="268" viewBox="0 0 265 268">
<g>
<path d="M 114.50 241.45 C105.39,239.73 97.19,237.05 88.50,232.93 C81.91,229.81 72.40,223.99 69.92,221.55 C69.04,220.70 67.96,220.00 67.51,220.00 C66.82,220.00 53.85,206.84 50.49,202.74 C47.64,199.27 42.00,191.14 42.00,190.52 C42.00,190.13 40.99,188.39 39.75,186.65 C38.52,184.92 37.64,183.38 37.79,183.23 C37.95,183.09 37.12,180.84 35.95,178.23 C34.77,175.63 33.73,173.05 33.63,172.50 C33.53,171.95 33.14,171.01 32.77,170.42 C32.39,169.82 31.84,167.93 31.54,166.22 C31.24,164.50 30.55,161.95 30.02,160.54 C26.72,151.87 26.71,115.70 30.00,105.58 C36.69,84.96 38.38,81.11 45.25,70.72 C50.99,62.03 62.16,49.93 68.67,45.36 C71.68,43.24 74.69,41.05 75.36,40.50 C79.49,37.12 95.59,29.22 100.10,28.36 C101.97,28.01 103.95,27.40 104.50,27.01 C107.24,25.06 119.64,23.50 132.00,23.55 C148.70,23.62 153.30,24.31 166.00,28.66 C192.87,37.86 214.19,56.93 227.35,83.55 C244.90,119.06 241.55,164.78 219.02,197.38 C203.95,219.18 180.29,235.06 154.62,240.63 C144.23,242.88 124.25,243.29 114.50,241.45 ZM 114.50 234.44 C119.23,235.42 125.88,235.78 135.00,235.55 C151.22,235.15 160.24,233.04 173.95,226.44 C206.35,210.85 227.39,180.23 231.12,143.25 C232.93,125.26 229.48,104.48 222.07,88.66 C212.38,68.00 195.23,50.18 175.50,40.26 C167.79,36.38 157.76,33.21 157.33,34.51 C157.15,35.06 153.12,41.58 148.38,49.00 C143.64,56.42 139.55,63.04 139.29,63.71 C138.95,64.58 141.08,65.00 146.89,65.21 L 154.96 65.50 L 134.88 88.82 C123.84,101.65 114.63,111.97 114.42,111.76 C114.21,111.54 117.16,104.42 120.97,95.93 L 127.91 80.50 L 121.03 80.00 C117.25,79.72 113.84,79.18 113.45,78.79 C113.06,78.40 115.74,71.87 119.41,64.29 C123.07,56.71 128.24,46.00 130.89,40.50 C134.65,32.71 135.39,30.42 134.24,30.15 C133.42,29.96 128.50,30.31 123.30,30.92 C100.17,33.65 81.80,42.24 65.64,57.89 C49.21,73.81 39.80,91.52 35.40,114.82 C32.21,131.72 34.55,155.68 40.99,172.00 C53.75,204.36 81.00,227.51 114.50,234.44 Z" fill="rgba(38,60,89,1)"/>
<path d="M 114.50 234.44 C91.68,229.72 71.77,217.48 57.36,199.93 C57.68,200.25 58.04,200.58 58.43,200.94 L 61.04 203.39 L 66.70 197.94 C74.33,190.61 74.44,190.51 78.50,188.00 C82.88,185.29 85.00,185.94 85.00,190.00 C85.00,193.98 87.53,200.00 89.20,199.99 C89.91,199.98 92.53,198.80 95.00,197.37 C108.20,189.73 115.43,186.00 117.00,186.00 C119.04,186.00 120.00,189.64 120.00,197.46 C120.00,200.32 120.30,202.97 120.67,203.33 C123.35,206.02 128.29,200.28 139.90,180.97 C144.11,173.96 144.72,172.34 143.80,170.58 C143.20,169.44 142.10,168.14 141.35,167.70 C138.26,165.87 140.76,153.33 145.38,147.55 L 147.73 144.60 L 155.62 155.44 C166.09,169.85 178.87,185.00 180.56,185.00 C180.80,185.00 181.00,183.09 181.01,180.75 C181.01,175.38 182.75,169.00 184.21,169.00 C185.56,169.00 191.56,175.41 201.74,187.74 C209.10,196.64 209.44,196.91 211.28,195.25 C211.62,194.94 211.94,194.64 212.23,194.37 C202.56,207.90 189.58,218.92 173.95,226.44 C160.24,233.04 151.22,235.15 135.00,235.55 C125.88,235.78 119.23,235.42 114.50,234.44 ZM 46.57 183.72 C48.01,186.16 49.30,188.01 49.44,187.83 C49.59,187.65 55.94,179.22 63.55,169.10 C71.17,158.99 79.48,148.44 82.02,145.68 L 86.65 140.64 L 90.85 142.32 C93.15,143.24 95.47,144.00 95.99,144.00 C97.11,144.00 105.34,133.18 109.24,126.59 C110.74,124.04 113.08,121.54 114.43,121.03 C116.99,120.05 122.44,113.65 129.31,103.54 L 133.36 97.57 L 138.43 103.53 C141.22,106.81 145.80,111.74 148.60,114.49 C151.41,117.25 157.21,124.83 161.50,131.34 C165.79,137.85 169.95,143.43 170.74,143.73 C171.53,144.03 173.74,143.54 175.65,142.63 C177.57,141.72 179.72,141.31 180.45,141.74 C182.53,142.93 191.77,153.67 211.92,178.33 C215.99,183.30 217.52,184.99 219.19,183.13 C217.66,186.01 216.00,188.80 214.21,191.50 C214.56,189.25 211.86,186.39 204.31,178.65 C198.33,172.52 189.99,163.68 185.79,159.00 L 178.15 150.50 L 174.78 153.75 C170.67,157.71 169.55,157.79 167.30,154.25 C158.96,141.15 147.41,127.00 145.06,127.00 C143.59,127.00 139.51,120.82 134.28,110.68 C133.53,109.23 133.09,110.03 132.05,114.68 C131.34,117.88 129.69,123.48 128.38,127.12 C125.59,134.89 125.49,135.67 127.52,133.98 C129.76,132.12 130.32,133.35 129.56,138.44 C128.27,147.08 122.89,155.78 113.58,164.29 L 105.07 172.07 L 96.37 163.99 C91.59,159.55 86.97,156.05 86.11,156.22 C85.25,156.38 81.84,159.94 78.52,164.12 C75.21,168.31 68.33,176.98 63.23,183.40 C56.39,192.02 54.22,194.77 55.20,197.21 C49.42,189.66 44.62,181.20 40.99,172.00 C40.21,170.02 39.49,167.93 38.83,165.76 C41.05,172.54 43.85,179.06 46.57,183.72 ZM 229.40 154.57 C231.77,142.32 232.10,129.54 230.38,117.27 C231.67,126.01 231.95,134.93 231.12,143.25 C230.73,147.09 230.15,150.87 229.40,154.57 ZM 34.61 143.88 C33.59,133.65 33.79,123.34 35.40,114.82 C34.03,122.09 33.83,133.62 34.61,143.88 Z" fill="rgba(82,117,146,1)"/>
<path d="M 120.67 203.33 C120.30,202.97 120.00,200.32 120.00,197.46 C120.00,189.64 119.04,186.00 117.00,186.00 C115.43,186.00 108.20,189.73 95.00,197.37 C92.53,198.80 89.91,199.98 89.20,199.99 C87.53,200.00 85.00,193.98 85.00,190.00 C85.00,185.94 82.88,185.29 78.50,188.00 C74.44,190.51 74.33,190.61 66.70,197.94 L 61.04 203.39 L 58.43 200.94 C53.21,196.06 53.23,196.00 63.23,183.40 C68.33,176.98 75.21,168.31 78.52,164.12 C81.84,159.94 85.25,156.38 86.11,156.22 C86.97,156.05 91.59,159.55 96.37,163.99 L 105.07 172.07 L 113.58 164.29 C122.89,155.78 128.27,147.08 129.56,138.44 C130.32,133.35 129.76,132.12 127.52,133.98 C125.49,135.67 125.59,134.89 128.38,127.12 C129.69,123.48 131.34,117.88 132.05,114.68 C133.09,110.03 133.53,109.23 134.28,110.68 C139.51,120.82 143.59,127.00 145.06,127.00 C147.41,127.00 158.96,141.15 167.30,154.25 C169.55,157.79 170.67,157.71 174.78,153.75 L 178.15 150.50 L 185.79 159.00 C189.99,163.68 198.33,172.52 204.31,178.65 C215.91,190.53 216.07,190.91 211.28,195.25 C209.44,196.91 209.10,196.64 201.74,187.74 C191.56,175.41 185.56,169.00 184.21,169.00 C182.75,169.00 181.01,175.38 181.01,180.75 C181.00,183.09 180.80,185.00 180.56,185.00 C178.87,185.00 166.09,169.85 155.62,155.44 L 147.73 144.60 L 145.38 147.55 C140.76,153.33 138.26,165.87 141.35,167.70 C142.10,168.14 143.20,169.44 143.80,170.58 C144.72,172.34 144.11,173.96 139.90,180.97 C128.29,200.28 123.35,206.02 120.67,203.33 ZM 46.57 183.72 C42.96,177.54 39.22,168.07 36.87,159.10 C33.97,148.08 33.25,126.22 35.40,114.82 C39.80,91.52 49.21,73.81 65.64,57.89 C81.80,42.24 100.17,33.65 123.30,30.92 C128.50,30.31 133.42,29.96 134.24,30.15 C135.39,30.42 134.65,32.71 130.89,40.50 C128.24,46.00 123.07,56.71 119.41,64.29 C115.74,71.87 113.06,78.40 113.45,78.79 C113.84,79.18 117.25,79.72 121.03,80.00 L 127.91 80.50 L 120.97 95.93 C117.16,104.42 114.21,111.54 114.42,111.76 C114.63,111.97 123.84,101.65 134.88,88.82 L 154.96 65.50 L 146.89 65.21 C141.08,65.00 138.95,64.58 139.29,63.71 C139.55,63.04 143.64,56.42 148.38,49.00 C153.12,41.58 157.15,35.06 157.33,34.51 C157.76,33.21 167.79,36.38 175.50,40.26 C195.23,50.18 212.38,68.00 222.07,88.66 C234.51,115.19 234.60,149.78 222.31,177.24 C218.44,185.87 218.11,185.90 211.92,178.33 C191.77,153.67 182.53,142.93 180.45,141.74 C179.72,141.31 177.57,141.72 175.65,142.63 C173.74,143.54 171.53,144.03 170.74,143.73 C169.95,143.43 165.79,137.85 161.50,131.34 C157.21,124.83 151.41,117.25 148.60,114.49 C145.80,111.74 141.22,106.81 138.43,103.53 L 133.36 97.57 L 129.31 103.54 C122.44,113.65 116.99,120.05 114.43,121.03 C113.08,121.54 110.74,124.04 109.24,126.59 C105.34,133.18 97.11,144.00 95.99,144.00 C95.47,144.00 93.15,143.24 90.85,142.32 L 86.65 140.64 L 82.02 145.68 C79.48,148.44 71.17,158.99 63.55,169.10 C55.94,179.22 49.59,187.65 49.44,187.83 C49.30,188.01 48.01,186.16 46.57,183.72 Z" fill="rgba(195,218,235,1)"/>
</g>
</svg>