<svg xmlns="http://www.w3.org/2000/svg" width="531" height="178" viewBox="0 0 531 178">
<g>
<path d="M 492.50 124.36 C488.68,123.36 477.00,117.70 477.00,116.85 C477.00,116.38 476.41,116.00 475.70,116.00 C473.01,116.00 465.66,109.46 457.31,99.64 C447.81,88.47 436.49,77.98 431.03,75.27 C428.55,74.04 425.12,73.52 419.50,73.53 C412.41,73.54 410.78,73.92 405.13,76.85 C400.94,79.02 398.42,79.82 397.77,79.17 C397.16,78.56 396.93,70.91 397.15,59.34 C397.51,41.49 397.66,40.27 400.01,36.05 C403.07,30.57 411.00,25.99 417.36,26.02 C418.16,26.02 418.77,25.95 419.36,26.02 C422.30,26.40 424.76,30.56 448.51,67.50 C457.70,81.80 466.85,95.20 468.84,97.27 C473.06,101.68 481.17,106.00 485.23,106.00 C489.38,106.00 494.36,103.63 496.83,100.49 C498.43,98.45 499.00,96.35 499.00,92.47 C499.00,87.66 498.68,86.93 495.33,83.98 C491.93,81.00 491.26,80.80 486.38,81.30 C483.49,81.60 480.98,81.43 480.81,80.93 C480.64,80.43 480.80,74.95 481.17,68.76 C481.24,67.58 481.30,66.19 481.37,64.65 C481.30,71.45 481.36,76.00 481.53,76.00 C481.81,76.00 484.56,74.57 487.66,72.82 C493.27,69.66 499.47,68.70 506.00,70.00 L 508.50 70.50 L 508.50 43.97 C508.63,46.26 508.69,49.37 508.78,53.83 C508.93,61.90 509.25,69.40 509.49,70.50 C509.73,71.60 511.33,73.12 513.05,73.87 C514.77,74.63 517.93,76.92 520.09,78.97 L 524.00 82.69 L 524.00 111.07 L 519.50 115.45 C517.03,117.85 512.97,120.80 510.49,122.01 C506.06,124.15 496.48,125.40 492.50,124.36 ZM 486.53 162.46 C486.64,162.58 486.75,162.71 486.85,162.83 C486.22,162.25 485.53,161.58 484.78,160.82 C481.87,157.89 477.70,154.15 475.50,152.50 C469.83,148.25 460.00,138.11 460.00,136.51 C460.00,135.77 459.63,135.02 459.17,134.83 C458.07,134.39 450.00,120.70 450.00,119.28 C450.00,118.67 449.64,118.02 449.20,117.83 C448.76,117.65 446.75,114.53 444.74,110.90 C442.72,107.28 439.36,102.23 437.26,99.69 C432.71,94.18 425.14,87.53 424.33,88.33 C424.05,88.62 423.64,100.38 423.37,115.43 C423.72,91.14 423.54,86.86 422.32,85.85 C421.51,85.18 417.84,84.46 414.17,84.26 C408.72,83.97 406.68,84.32 403.00,86.20 L 398.81 88.34 C399.01,87.39 399.25,86.89 399.55,86.60 C401.83,84.31 410.54,81.88 418.50,81.30 C431.26,80.36 439.33,85.68 454.51,104.99 C464.73,118.00 473.47,126.42 479.72,129.26 C483.51,130.99 486.37,131.44 493.50,131.43 C503.89,131.42 511.22,129.53 518.31,125.02 C520.96,123.34 523.59,122.25 524.15,122.60 C525.57,123.47 524.23,130.06 522.17,132.36 C519.92,134.86 514.22,137.68 509.70,138.53 C503.44,139.70 505.68,142.00 513.08,142.00 C515.24,142.00 517.00,142.45 517.00,143.01 C517.00,144.70 508.98,154.15 503.60,159.25 C503.67,159.17 503.73,159.08 503.77,159.00 C504.97,157.08 504.88,156.99 502.27,157.69 C500.75,158.10 495.77,158.40 491.22,158.35 C486.67,158.31 483.09,158.42 483.26,158.60 C483.44,158.77 484.91,160.51 486.53,162.46 ZM 316.39 89.74 C317.85,87.43 316.22,86.24 314.61,88.20 C315.41,86.32 316.57,83.86 317.89,81.22 C320.65,75.73 322.62,70.96 322.28,70.62 C321.94,70.28 319.97,70.00 317.89,70.00 C315.82,70.00 313.88,69.62 313.59,69.15 C313.30,68.68 316.43,61.74 320.54,53.71 C325.46,44.11 327.64,38.89 326.90,38.44 C326.74,38.34 326.39,38.26 325.87,38.20 C334.17,38.29 341.46,38.67 345.00,39.41 C345.37,39.49 345.75,39.57 346.12,39.65 C345.79,39.67 345.47,39.72 345.18,39.82 C343.29,40.41 341.91,42.64 338.79,47.27 C330.75,59.22 330.56,59.67 333.35,60.37 C334.62,60.69 336.63,60.76 337.83,60.53 C339.02,60.30 340.00,60.55 340.00,61.09 C340.00,62.33 318.86,87.00 317.80,87.00 C317.36,87.00 317.00,87.62 317.00,88.38 C317.00,89.82 314.68,92.12 313.66,91.88 C314.41,91.81 315.62,90.96 316.39,89.74 ZM 398.21 154.06 C398.08,146.96 398.00,137.14 398.00,126.40 C398.00,105.38 398.08,95.56 398.48,90.84 L 398.24 126.00 C398.16,136.91 398.16,146.93 398.21,154.06 ZM 284.85 41.08 C285.21,40.93 285.60,40.78 286.01,40.61 C288.69,39.54 298.06,38.77 308.69,38.41 C298.67,38.92 287.86,39.87 285.71,40.73 C285.41,40.85 285.12,40.97 284.85,41.08 ZM 491.76 25.58 C497.03,27.08 501.13,29.60 504.19,33.20 C501.28,30.02 496.61,27.17 491.76,25.58 ZM 501.93 160.76 C501.27,161.33 500.68,161.78 500.21,162.08 C497.03,164.10 494.89,165.27 493.06,165.55 C495.68,164.64 499.58,162.53 501.93,160.76 ZM 381.50 135.64 C382.69,135.29 384.38,130.55 385.86,123.53 C384.63,130.30 383.02,135.20 381.50,135.64 ZM 384.76 73.50 C382.82,67.53 379.92,62.16 376.15,57.51 C380.03,62.15 382.85,67.33 384.76,73.50 ZM 387.84 105.59 C388.02,99.42 387.88,92.84 387.41,87.34 C387.80,91.31 387.98,95.62 387.97,100.34 C387.96,102.06 387.92,103.82 387.84,105.59 ZM 398.68 165.35 C398.65,165.32 398.62,165.20 398.60,165.00 C399.20,165.69 401.36,165.72 404.08,165.30 C401.38,165.79 399.23,165.89 398.68,165.35 ZM 481.98 38.23 C482.06,34.19 482.22,30.60 482.42,28.20 C482.29,30.32 482.13,33.87 481.98,38.23 ZM 423.08 132.49 C422.70,150.80 422.11,156.02 419.58,158.85 C422.09,156.04 422.69,150.82 423.08,132.49 ZM 482.78 25.43 C482.80,25.35 482.82,25.28 482.85,25.23 C482.82,25.29 482.80,25.36 482.78,25.43 Z" fill="rgba(33,60,90,1)"/>
<path d="M 291.85 166.13 C283.77,165.37 281.75,164.36 279.43,159.87 C276.86,154.89 277.58,150.47 281.75,145.84 C286.07,141.04 292.68,136.00 294.65,136.00 C295.46,136.00 296.00,137.12 296.00,138.81 C296.00,140.35 296.61,142.45 297.36,143.47 C298.64,145.23 299.16,145.05 307.30,140.07 C312.01,137.17 316.35,135.10 316.94,135.46 C317.52,135.82 318.00,138.57 318.00,141.56 C318.00,149.99 320.39,149.02 327.85,137.56 C331.23,132.37 334.00,127.72 334.00,127.22 C334.00,126.72 333.13,125.53 332.07,124.57 C330.30,122.97 330.26,122.46 331.49,118.37 C332.86,113.82 334.60,111.00 336.05,111.00 C336.50,111.00 339.33,114.49 342.34,118.75 C345.35,123.01 349.76,128.52 352.14,131.00 L 356.46 135.50 L 356.98 130.58 C357.27,127.87 357.99,125.49 358.59,125.30 C359.82,124.90 377.00,144.61 377.00,146.42 C377.00,147.07 374.72,149.94 371.93,152.79 C366.64,158.19 357.84,163.07 349.97,164.97 C344.53,166.28 302.46,167.12 291.85,166.13 ZM 51.79 164.88 C36.51,162.91 16.62,154.26 11.25,147.25 C5.97,140.36 4.37,128.77 7.75,122.01 C10.00,117.51 16.53,113.87 22.73,113.66 C27.12,113.51 27.46,113.68 28.27,116.50 C32.74,131.99 35.16,135.48 44.78,140.22 C51.08,143.32 52.17,143.52 64.13,143.85 C78.43,144.24 85.86,142.74 91.73,138.26 C96.37,134.72 98.00,131.12 98.00,124.42 C98.00,113.09 93.51,109.82 68.50,102.95 C35.75,93.96 27.53,90.55 19.01,82.43 C11.56,75.33 9.00,69.22 9.00,58.59 C9.00,42.92 15.66,33.52 32.78,25.03 C42.97,19.97 50.01,18.61 65.50,18.67 C81.00,18.73 90.14,20.56 100.58,25.67 C111.95,31.24 119.00,40.70 119.00,50.40 C119.00,59.98 113.45,65.85 103.98,66.30 C99.29,66.52 98.63,65.87 97.01,59.34 C95.22,52.17 90.22,45.91 83.57,42.52 C77.90,39.63 77.08,39.50 65.07,39.50 C53.59,39.50 52.02,39.73 46.89,42.13 C39.50,45.59 35.79,50.44 35.24,57.32 C34.37,68.14 40.58,72.48 67.00,79.50 C98.37,87.84 106.30,91.27 115.67,100.55 C123.52,108.31 125.52,114.12 124.74,126.76 C123.83,141.27 117.08,151.52 104.54,157.43 C88.73,164.88 71.10,167.37 51.79,164.88 ZM 136.90 164.75 C136.41,158.55 136.54,55.37 137.05,51.72 C137.80,46.31 140.50,42.83 146.25,39.88 C151.34,37.27 158.25,36.38 159.65,38.14 C160.23,38.89 163.53,46.70 166.96,55.50 C170.40,64.30 178.45,84.55 184.85,100.50 C195.66,127.47 196.48,129.97 196.48,136.25 C196.49,139.96 196.58,143.00 196.70,143.00 C197.35,143.00 218.71,88.56 234.35,47.02 C236.86,40.36 238.08,38.34 240.02,37.66 C245.03,35.90 254.98,40.35 259.41,46.32 C261.47,49.10 261.50,50.08 261.78,107.09 C262.04,159.99 261.92,165.09 260.43,165.67 C258.04,166.58 249.25,164.32 245.88,161.91 C240.24,157.90 240.08,156.93 239.84,123.86 L 239.62 93.50 L 242.39 84.67 C243.92,79.81 244.90,75.56 244.56,75.23 C242.79,73.46 239.89,79.93 218.45,133.45 C212.29,148.82 206.33,162.43 205.20,163.70 C201.85,167.46 196.58,166.87 192.49,162.28 C189.74,159.18 187.08,153.50 186.88,150.26 C186.85,149.84 186.45,149.04 185.99,148.49 C185.52,147.93 182.02,139.38 178.20,129.49 C164.16,93.15 156.79,74.99 155.84,74.40 C153.80,73.14 153.66,75.28 155.37,81.29 C158.22,91.30 158.99,104.84 158.22,131.68 L 157.50 156.87 L 154.61 159.89 C150.13,164.56 137.17,168.12 136.90,164.75 ZM 398.47 164.79 C398.20,164.08 398.09,146.62 398.24,126.00 L 398.50 88.50 L 403.00 86.20 C406.68,84.32 408.72,83.97 414.17,84.26 C417.84,84.46 421.51,85.18 422.32,85.85 C423.60,86.92 423.74,91.64 423.30,119.79 C422.75,155.76 422.47,157.51 416.81,160.99 C411.21,164.43 399.28,166.90 398.47,164.79 ZM 486.53 162.46 C484.91,160.51 483.44,158.77 483.26,158.60 C483.09,158.42 486.67,158.31 491.22,158.35 C495.77,158.40 500.75,158.10 502.27,157.69 C504.88,156.99 504.97,157.08 503.77,159.00 C502.42,161.19 493.67,166.00 491.05,166.00 C490.19,166.00 488.16,164.41 486.53,162.46 ZM 371.70 126.54 C366.87,121.38 362.00,115.99 360.88,114.58 C358.56,111.62 355.47,111.26 352.84,113.65 C351.13,115.19 350.88,115.11 348.76,112.41 C347.52,110.82 345.77,108.78 344.87,107.88 C343.97,106.98 341.37,103.71 339.09,100.62 C336.81,97.53 334.56,95.00 334.10,95.00 C333.64,95.00 328.15,101.49 321.88,109.43 C315.62,117.37 309.97,124.09 309.33,124.37 C308.68,124.65 305.76,122.65 302.83,119.94 C299.91,117.22 297.06,115.14 296.51,115.31 C295.95,115.48 292.15,120.01 288.07,125.36 C281.59,133.85 280.50,134.86 279.57,133.30 C278.85,132.10 278.53,117.75 278.59,90.00 C278.68,43.32 278.65,43.56 285.71,40.73 C289.78,39.11 324.83,37.16 326.90,38.44 C327.64,38.89 325.46,44.11 320.54,53.71 C316.43,61.74 313.30,68.68 313.59,69.15 C313.88,69.62 315.82,70.00 317.89,70.00 C319.97,70.00 321.94,70.28 322.28,70.62 C322.62,70.96 320.65,75.73 317.89,81.22 C315.13,86.72 313.12,91.45 313.41,91.75 C314.23,92.56 317.00,89.95 317.00,88.38 C317.00,87.62 317.36,87.00 317.80,87.00 C318.86,87.00 340.00,62.33 340.00,61.09 C340.00,60.55 339.02,60.30 337.83,60.53 C336.63,60.76 334.62,60.69 333.35,60.37 C330.56,59.67 330.75,59.22 338.79,47.27 C344.95,38.13 344.31,38.34 354.24,42.04 C371.50,48.46 383.04,62.16 386.51,80.34 C388.36,90.07 388.39,110.00 386.56,120.00 C384.93,128.92 382.88,135.24 381.50,135.64 C380.95,135.79 376.54,131.70 371.70,126.54 ZM 481.58 52.25 C481.88,39.19 482.34,27.45 482.60,26.17 C483.04,24.04 483.44,23.89 487.29,24.49 C494.37,25.58 502.16,30.00 505.50,34.83 L 508.50 39.17 L 508.50 54.83 L 508.50 70.50 L 506.00 70.00 C499.47,68.70 493.27,69.66 487.66,72.82 C484.56,74.57 481.81,76.00 481.53,76.00 C481.26,76.00 481.28,65.31 481.58,52.25 Z" fill="rgba(76,115,147,1)"/>
</g>
</svg>