<svg xmlns="http://www.w3.org/2000/svg" width="811" height="307" viewBox="0 0 811 307">
<g>
<path d="M 224.50 249.86 C224.20,249.08 224.08,209.98 224.23,162.97 L 224.50 77.50 L 227.22 72.35 C228.71,69.52 231.63,65.79 233.72,64.07 C238.01,60.50 248.64,56.91 255.61,56.67 C260.29,56.50 260.31,56.52 262.11,61.00 C263.11,63.47 270.06,81.25 277.56,100.50 C285.06,119.75 296.98,150.15 304.06,168.05 L 316.93 200.59 L 315.46 205.46 C313.85,210.81 314.09,212.69 315.82,208.28 C322.88,190.26 334.04,160.86 353.14,110.00 C362.53,84.97 370.89,62.81 371.72,60.75 C373.18,57.09 373.35,57.00 378.36,57.01 C389.04,57.04 397.72,60.61 403.75,67.45 C404.89,68.75 405.85,69.78 406.66,70.91 C411.25,77.33 411.05,87.16 410.74,167.17 L 410.43 250.50 L 404.24 250.33 C391.26,249.97 382.22,245.58 377.77,237.47 L 375.05 232.50 L 375.02 186.32 L 375.00 140.14 L 379.65 127.56 C383.88,116.15 384.63,111.97 382.00,114.60 C380.98,115.62 342.75,211.42 335.38,231.44 C329.70,246.87 325.87,251.00 317.25,251.00 C312.43,251.00 305.57,246.74 303.61,242.53 C302.83,240.87 296.77,225.10 290.15,207.50 C273.38,162.99 254.08,113.68 252.98,112.58 C252.43,112.03 251.82,112.30 251.44,113.29 C251.10,114.18 252.65,119.66 254.89,125.46 L 258.97 136.01 L 259.02 184.12 C259.07,231.09 259.02,232.33 256.96,236.59 C254.27,242.15 250.50,245.30 243.33,247.98 C235.84,250.78 225.26,251.84 224.50,249.86 ZM 99.00 248.83 C88.61,247.35 72.33,242.25 61.26,236.99 C44.47,229.02 36.35,219.63 33.55,204.91 C31.21,192.64 34.26,180.80 41.00,176.00 C45.32,172.93 53.42,170.30 61.06,169.50 L 67.61 168.81 L 68.77 177.49 C70.22,188.32 73.27,195.10 79.59,201.55 C89.91,212.08 101.39,215.96 122.29,215.98 C149.32,216.02 163.31,209.70 167.53,195.57 C171.44,182.47 166.62,172.26 153.63,166.06 C150.26,164.46 134.90,159.71 119.50,155.52 C87.04,146.69 75.07,142.53 64.86,136.54 C46.42,125.72 38.88,113.95 37.40,93.63 C36.15,76.59 41.51,62.39 53.37,51.32 C68.43,37.25 92.66,29.00 118.88,29.00 C148.70,29.01 173.69,36.41 187.70,49.38 C203.40,63.91 206.40,86.91 193.98,97.37 C190.76,100.08 183.89,102.39 175.87,103.47 C170.05,104.25 168.50,102.88 167.72,96.32 C166.36,84.78 159.54,73.71 150.65,68.57 C139.82,62.32 124.39,59.95 110.32,62.39 C98.14,64.49 91.16,67.23 85.72,72.02 C77.70,79.08 75.37,90.84 80.33,99.31 C85.54,108.18 94.79,112.40 126.08,120.14 C150.38,126.16 170.80,133.36 182.88,140.17 C185.97,141.92 191.90,146.76 196.05,150.94 C202.04,156.96 204.16,159.92 206.29,165.24 C213.99,184.47 211.28,206.02 199.08,222.76 C190.70,234.25 169.17,245.00 147.50,248.53 C137.46,250.16 109.59,250.33 99.00,248.83 ZM 432.50 201.70 C432.14,197.74 431.99,167.05 432.17,133.50 L 432.50 72.50 L 434.80 68.80 C436.35,66.30 438.96,64.18 442.80,62.30 L 448.50 59.50 L 489.50 59.50 C495.97,59.50 501.45,59.51 506.12,59.52 L 498.09 75.64 C488.36,95.15 484.00,104.53 484.00,105.98 C484.00,106.58 487.06,107.00 491.50,107.00 C495.62,107.00 499.00,107.23 499.00,107.51 C499.00,107.79 495.62,114.76 491.50,123.00 C487.38,131.24 484.00,138.46 484.00,139.05 C484.00,140.95 485.97,139.00 493.45,129.66 C497.49,124.62 506.18,114.43 512.76,107.00 L 524.74 93.50 L 517.37 93.21 C512.12,93.00 510.00,92.54 510.00,91.61 C510.00,89.94 519.52,74.75 525.52,66.87 C528.06,63.53 529.87,60.54 529.55,60.21 C529.48,60.15 529.23,60.08 528.81,60.01 C532.63,60.28 534.73,60.70 536.94,61.33 C563.92,68.98 584.50,89.27 590.87,114.50 C595.66,133.49 596.22,166.93 592.05,185.50 C589.71,195.93 585.11,209.22 584.00,208.79 C583.12,208.46 570.03,193.73 558.86,180.50 C551.48,171.76 549.08,168.70 547.15,168.97 C546.01,169.13 545.02,170.44 543.28,172.42 L 539.31 176.93 L 536.76 174.22 C535.36,172.72 530.38,166.10 525.68,159.50 C520.99,152.90 516.54,146.66 515.79,145.63 C514.51,143.87 514.26,144.01 511.67,147.92 C510.15,150.21 505.43,156.23 501.18,161.29 C496.92,166.36 489.93,175.11 485.64,180.75 C481.35,186.39 477.48,191.00 477.03,191.00 C476.58,191.00 472.62,187.20 468.22,182.55 L 460.22 174.10 L 452.36 184.15 C448.04,189.68 441.95,197.51 438.83,201.55 L 433.16 208.90 ZM 646.00 134.27 L 646.00 180.84 C646.00,230.34 645.85,232.17 641.29,238.50 C636.62,245.00 623.69,249.94 611.25,249.98 L 606.00 250.00 L 606.00 132.03 L 608.69 130.26 C607.56,131.10 607.00,131.87 607.00,132.55 C607.00,134.04 608.99,133.62 612.52,131.36 C616.44,128.86 623.56,126.83 628.54,126.79 C633.54,126.75 644.00,130.89 644.00,132.91 C644.00,133.34 644.87,133.91 646.00,134.27 ZM 772.13 108.96 C771.50,108.68 771.10,108.50 771.00,108.48 C770.72,108.42 768.70,107.84 766.50,107.19 C761.43,105.69 750.33,105.66 745.90,107.12 C740.47,108.92 732.07,114.88 728.46,119.46 C729.52,116.71 729.62,109.57 730.00,78.67 L 730.50 38.50 L 737.50 38.61 C751.02,38.82 763.98,46.86 769.12,58.23 C771.37,63.20 771.52,64.79 771.82,86.25 L 772.13 108.96 ZM 737.43 246.85 C732.33,238.70 728.75,234.89 724.12,232.72 C719.52,230.56 712.77,224.49 706.36,217.28 C707.64,218.67 709.01,220.07 710.45,221.51 C719.04,230.10 723.60,233.15 733.00,236.62 C737.91,238.43 755.96,238.39 760.73,236.55 C762.80,235.75 765.36,234.96 766.41,234.80 C767.65,234.61 769.85,232.84 772.29,230.37 C770.50,232.45 768.62,234.88 767.40,236.77 C762.44,244.46 755.65,248.42 743.82,250.54 C740.31,251.17 740.03,251.00 737.43,246.85 ZM 312.42 214.67 C311.89,216.34 311.97,216.34 313.42,214.56 C315.23,212.34 315.45,211.00 314.00,211.00 C313.45,211.00 313.00,211.41 313.00,211.92 C313.00,212.42 312.74,213.66 312.42,214.67 ZM 774.94 227.53 C778.31,223.71 781.63,219.21 783.15,216.15 C781.84,219.68 779.00,223.62 774.97,227.50 C774.96,227.51 774.95,227.52 774.94,227.53 ZM 726.84 121.69 C725.59,123.53 724.99,124.77 725.07,125.36 C724.81,124.73 725.42,123.32 726.84,121.69 ZM 782.84 213.23 C781.54,213.06 779.29,212.94 776.75,212.90 C772.77,212.85 768.39,212.46 767.01,212.05 C768.39,212.46 772.80,212.85 776.82,212.90 C780.10,212.95 781.91,212.98 782.84,213.23 ZM 679.96 175.65 C675.63,168.11 671.23,160.79 668.69,157.00 C667.08,154.59 664.77,151.66 662.24,148.73 C664.73,151.59 667.02,154.49 668.70,157.00 C671.24,160.79 675.63,168.12 679.96,175.65 ZM 621.48 124.46 C622.33,124.16 623.18,123.86 624.02,123.58 C638.83,118.64 644.55,118.94 657.42,125.33 C644.55,118.94 638.81,118.64 624.08,123.57 C623.18,123.87 622.31,124.17 621.48,124.46 Z" fill="rgba(3,6,13,1)"/>
<path d="M 745.00 188.09 C724.53,181.38 704.77,167.02 694.60,151.47 C692.46,148.18 684.93,139.79 677.88,132.82 C667.26,122.31 663.74,119.49 657.35,116.33 C646.87,111.15 638.88,110.65 627.47,114.47 C623.09,115.93 616.76,118.66 613.41,120.53 C608.79,123.10 607.04,123.64 606.16,122.76 C604.65,121.25 604.58,77.17 606.07,68.01 C608.18,54.98 613.02,48.06 623.22,43.48 C629.95,40.46 640.17,39.07 642.34,40.87 C643.10,41.50 648.85,50.12 655.11,60.02 C661.38,69.92 669.66,82.85 673.52,88.76 C677.39,94.67 687.03,109.57 694.95,121.87 C707.33,141.11 710.27,145.00 715.89,149.64 C725.43,157.51 729.69,159.32 737.53,158.82 C748.88,158.09 756.00,151.00 756.00,140.40 C756.00,134.46 753.41,129.88 747.98,126.19 C744.87,124.09 743.64,123.88 736.50,124.25 C732.10,124.47 727.71,125.01 726.75,125.44 C724.07,126.63 724.61,124.55 728.25,119.73 C731.74,115.12 740.36,108.95 745.90,107.12 C750.33,105.66 761.43,105.69 766.50,107.19 C768.70,107.84 770.72,108.42 771.00,108.48 C771.28,108.54 774.17,109.88 777.44,111.46 C784.97,115.09 791.42,121.52 794.83,128.80 C797.24,133.94 797.50,135.63 797.50,146.00 C797.50,156.94 797.34,157.82 794.25,164.14 C788.19,176.54 778.74,184.39 765.07,188.40 C758.11,190.45 751.90,190.35 745.00,188.09 ZM 733.00 236.62 C723.60,233.15 719.04,230.10 710.45,221.51 C701.24,212.31 695.34,204.48 690.86,195.50 C686.28,186.31 673.77,164.58 668.70,157.00 C662.95,148.40 650.05,135.30 646.44,134.40 C645.10,134.06 644.00,133.39 644.00,132.91 C644.00,130.89 633.54,126.75 628.54,126.79 C623.56,126.83 616.44,128.86 612.52,131.36 C608.99,133.62 607.00,134.04 607.00,132.55 C607.00,130.38 612.71,127.38 624.08,123.57 C638.81,118.64 644.55,118.94 657.42,125.33 C669.54,131.35 675.75,137.08 688.58,154.11 C708.28,180.24 718.92,190.19 732.50,195.20 C743.78,199.37 765.49,197.37 778.50,190.97 C781.80,189.35 787.58,185.51 791.34,182.44 C795.11,179.37 798.35,177.02 798.55,177.22 C798.75,177.42 798.27,180.39 797.47,183.81 C795.87,190.66 791.90,199.28 788.77,202.69 C786.68,204.97 775.43,209.36 768.50,210.59 C764.82,211.24 764.70,211.36 767.00,212.05 C768.38,212.46 772.76,212.85 776.75,212.90 C780.74,212.96 784.00,213.24 784.00,213.53 C784.00,217.67 770.34,234.18 766.41,234.80 C765.36,234.96 762.80,235.75 760.73,236.55 C755.96,238.39 737.91,238.43 733.00,236.62 ZM 484.00 139.05 C484.00,138.46 487.38,131.24 491.50,123.00 C495.62,114.76 499.00,107.79 499.00,107.51 C499.00,107.23 495.62,107.00 491.50,107.00 C487.06,107.00 484.00,106.58 484.00,105.98 C484.00,104.53 488.36,95.15 498.09,75.64 L 506.50 58.77 L 517.73 59.20 C523.91,59.43 529.22,59.89 529.55,60.21 C529.87,60.54 528.06,63.53 525.52,66.87 C519.52,74.75 510.00,89.94 510.00,91.61 C510.00,92.54 512.12,93.00 517.37,93.21 L 524.74 93.50 L 512.76 107.00 C506.18,114.43 497.49,124.62 493.45,129.66 C485.97,139.00 484.00,140.95 484.00,139.05 ZM 312.42 214.67 C312.74,213.66 313.00,212.42 313.00,211.92 C313.00,211.41 313.45,211.00 314.00,211.00 C315.45,211.00 315.23,212.34 313.42,214.56 C311.97,216.34 311.89,216.34 312.42,214.67 Z" fill="rgba(32,62,93,1)"/>
<path d="M 579.33 220.57 L 576.24 217.29 C574.35,215.29 571.75,212.04 570.46,210.07 C569.16,208.11 565.34,203.57 561.96,200.00 C558.58,196.43 555.37,192.26 554.81,190.75 C554.26,189.24 553.40,188.25 552.90,188.56 C552.41,188.87 552.00,188.68 552.00,188.15 C552.00,186.40 548.20,188.14 547.67,190.14 C547.39,191.21 547.60,193.53 548.14,195.29 C549.85,200.95 549.98,202.33 548.88,203.65 C548.01,204.70 547.35,204.62 545.43,203.22 C544.13,202.27 543.05,201.07 543.03,200.54 C543.01,200.01 541.85,198.43 540.43,197.04 C539.02,195.64 536.32,192.25 534.43,189.50 C532.54,186.75 529.76,182.75 528.25,180.61 C526.74,178.47 525.04,175.99 524.48,175.11 C519.72,167.60 517.90,165.00 517.42,165.00 C516.07,165.00 514.23,168.01 511.32,174.99 C508.50,181.76 508.33,182.73 509.56,185.12 C510.31,186.57 511.62,188.02 512.46,188.35 C514.73,189.22 514.33,193.45 511.67,196.67 C510.38,198.23 508.63,200.85 507.76,202.50 C506.90,204.15 504.63,208.51 502.72,212.20 C500.81,215.88 498.51,219.63 497.62,220.52 C493.64,224.51 489.59,219.44 490.58,211.72 C491.57,204.04 488.33,201.86 482.82,206.50 C481.18,207.88 479.15,209.00 478.29,209.00 C477.43,209.00 475.97,209.88 475.05,210.95 C474.12,212.02 470.72,213.88 467.50,215.09 L 461.64 217.28 L 459.32 214.58 C458.04,213.10 457.00,210.82 457.00,209.50 C457.00,208.19 456.56,206.85 456.03,206.52 C454.77,205.74 450.41,208.09 446.06,211.88 C444.17,213.53 442.27,214.67 441.84,214.40 C441.41,214.13 440.25,214.90 439.28,216.11 C437.03,218.88 434.89,221.03 432.15,223.24 C431.41,223.84 430.90,224.50 430.55,225.35 C430.69,224.63 430.86,223.98 431.07,223.40 C432.53,219.44 454.70,202.00 458.27,202.00 C458.76,202.00 459.02,203.91 458.85,206.24 C458.60,209.61 458.89,210.55 460.27,210.81 C461.44,211.04 462.00,212.09 462.00,214.07 C462.00,215.68 462.16,217.00 462.35,217.00 C462.54,217.00 466.43,214.50 471.01,211.44 C480.31,205.21 488.16,201.00 490.47,201.00 C491.73,201.00 492.00,202.57 492.00,209.88 C492.00,216.10 492.40,219.09 493.35,219.87 C495.07,221.30 496.45,219.74 501.41,210.70 C503.47,206.97 507.15,200.98 509.60,197.40 C512.05,193.83 513.81,190.51 513.52,190.03 C513.22,189.55 511.63,188.86 509.99,188.50 C506.85,187.81 506.13,185.64 507.91,182.24 C508.40,181.28 509.35,178.48 510.00,176.00 C511.59,170.01 515.05,162.00 516.05,162.00 C516.49,162.00 519.95,166.61 523.75,172.25 C531.18,183.30 545.70,202.29 547.13,202.83 C548.37,203.31 548.20,201.21 546.54,195.75 C545.15,191.19 545.19,190.89 547.39,188.33 C548.85,186.64 550.27,185.89 551.29,186.28 C552.17,186.62 555.73,190.38 559.19,194.64 C566.09,203.11 572.53,210.67 577.24,215.81 C578.95,217.67 579.80,218.86 579.33,220.57 ZM 543.54 247.52 C546.99,246.36 549.48,245.03 550.73,243.60 C552.13,241.99 553.54,241.33 554.84,241.67 C555.84,241.93 557.18,241.67 558.76,240.97 C554.20,243.66 549.12,245.85 543.54,247.52 ZM 430.42 233.99 C431.09,238.25 432.45,242.24 433.63,242.69 C432.10,242.10 430.90,238.27 430.42,233.99 ZM 574.22 227.69 C575.04,226.73 575.86,225.74 576.67,224.72 L 578.28 222.69 C577.44,223.97 576.11,225.56 574.22,227.69 Z" fill="rgba(168,187,201,1)"/>
<path d="M 782.09 285.17 C781.51,284.09 779.68,282.74 778.02,282.16 C774.22,280.83 774.14,279.12 777.83,278.38 C779.91,277.97 780.99,276.91 781.90,274.41 C783.36,270.37 784.63,270.09 786.18,273.49 C786.80,274.85 788.36,276.66 789.65,277.51 C792.90,279.64 792.58,281.09 788.24,284.00 C783.16,287.40 783.27,287.37 782.09,285.17 ZM 451.40 251.08 C443.56,250.57 441.74,250.09 438.17,247.62 C435.90,246.04 434.25,244.41 434.51,243.98 C434.77,243.56 434.38,242.98 433.63,242.69 C431.99,242.06 430.00,234.60 430.00,229.05 C430.00,226.09 430.59,224.50 432.15,223.24 C434.89,221.03 437.03,218.88 439.28,216.11 C440.25,214.90 441.41,214.13 441.84,214.40 C442.27,214.67 444.17,213.53 446.06,211.88 C450.41,208.09 454.77,205.74 456.03,206.52 C456.56,206.85 457.00,208.19 457.00,209.50 C457.00,210.82 458.04,213.10 459.32,214.58 L 461.64 217.28 L 467.50 215.09 C470.72,213.88 474.12,212.02 475.05,210.95 C475.97,209.88 477.43,209.00 478.29,209.00 C479.15,209.00 481.18,207.88 482.82,206.50 C488.33,201.86 491.57,204.04 490.58,211.72 C489.59,219.44 493.64,224.51 497.62,220.52 C498.51,219.63 500.81,215.88 502.72,212.20 C504.63,208.51 506.90,204.15 507.76,202.50 C508.63,200.85 510.38,198.23 511.67,196.67 C514.33,193.45 514.73,189.22 512.46,188.35 C511.62,188.02 510.31,186.57 509.56,185.12 C508.33,182.73 508.50,181.76 511.32,174.99 C514.23,168.01 516.07,165.00 517.42,165.00 C517.90,165.00 519.72,167.60 524.48,175.11 C525.04,175.99 526.74,178.47 528.25,180.61 C529.76,182.75 532.54,186.75 534.43,189.50 C536.32,192.25 539.02,195.64 540.43,197.04 C541.85,198.43 543.01,200.01 543.03,200.54 C543.05,201.07 544.13,202.27 545.43,203.22 C547.35,204.62 548.01,204.70 548.88,203.65 C549.98,202.33 549.85,200.95 548.14,195.29 C547.60,193.53 547.39,191.21 547.67,190.14 C548.20,188.14 552.00,186.40 552.00,188.15 C552.00,188.68 552.41,188.87 552.90,188.56 C553.40,188.25 554.26,189.24 554.81,190.75 C555.37,192.26 558.58,196.43 561.96,200.00 C565.34,203.57 569.16,208.11 570.46,210.07 C571.75,212.04 574.35,215.29 576.24,217.29 L 579.68 220.94 L 576.67 224.72 C568.07,235.53 558.83,242.71 554.84,241.67 C553.54,241.33 552.13,241.99 550.73,243.60 C547.82,246.95 538.09,249.76 525.19,250.98 C514.01,252.04 467.07,252.11 451.40,251.08 Z" fill="rgba(166,191,210,1)"/>
</g>
</svg>